<?xml version="1.0" encoding="utf-8"?>
<!-- Generator: Adobe Illustrator 22.0.1, SVG Export Plug-In . SVG Version: 6.00 Build 0)  -->
<svg version="1.1" xmlns="http://www.w3.org/2000/svg" xmlns:xlink="http://www.w3.org/1999/xlink" x="0px" y="0px"
	 viewBox="0 0 1062.1 984.4" style="enable-background:new 0 0 1062.1 984.4;" xml:space="preserve">
<style type="text/css">
	.st0{fill:#FFFFFF;}
	.st1{fill:none;}
</style>
<g id="Layer_1">
</g>
<g id="PROPORÇ_x2DC_AO_E_REGRAS">
	<g>
		<g>
			<g>
				<path class="st0" d="M517.3,200c-24.2,0-50.7,2.2-76.9,6.7c26.5-34,68.5-55.9,115.3-55.9c34.6,0,69.1,13,92.4,32.4
					c4.2,3.5,7.4,3.8,10.7,0.6c3.2-3.2,2.9-6.4-0.6-10.5c-30.4-35.3-74.9-59.1-127.6-58.2C461.8,116.4,403.3,160,381,220.3
					c-20.3,6.4-39.1,14-55.6,23.2c-4.5,2.5-6.1,5.7-4.5,9.5c1.6,3.5,4.8,4.8,9.4,3.5c14.2-4.1,28.7-7.6,43.9-10.8
					c-1.6,7.9-2.6,16.2-2.6,24.8c-1.3,55.6,28.4,108.4,74.3,137.3c4.5,2.9,8.4,2.9,11-0.6c2.6-3.5,2.3-6.7-1.6-10.2
					c-29.1-26.1-45.2-64.8-45.2-103.3c0-19.4,3.9-38.1,11.3-55c15.2-1.3,31.7-2.2,49.7-2.2c117.6,0,216.7,38.8,216.7,89.6
					c0,25.7-32.6,51.5-71.4,68.6c-9.4,4.1-10.3,7-9,11.1c1.3,3.8,5.5,5.1,10.3,3.5c67.8-22.2,119.2-58.8,119.2-103
					C737,246.4,640.1,200,517.3,200"/>
				<g>
					<path class="st0" d="M564.8,372.3l-34.8,20v119.4h37.2c3.5,0,6.3-2.8,6.3-6.3V376.8C573.5,371.9,568.7,370.1,564.8,372.3z"/>
					<path class="st0" d="M520.2,398l-23.8,13.7c-2.5,1.4-4.1,3.7-4.1,7v89c0,2.2,1.8,4,4,4h23.9V398z"/>
				</g>
			</g>
			<path class="st0" d="M384.5,691.8c-11.9,0-18.3-3.5-18.3-11.9s6.5-11.7,18.3-11.7c4,0,8.5,0.4,11,0.6v21.9
				C394,691.2,387.6,691.8,384.5,691.8 M214.8,691c-2.7,0-6.9,0-9.8-1v-51.8c3.5-1.9,8.5-2.9,15-2.9c12.9,0,19.8,9,19.8,25.8
				C239.8,678.7,231.6,691,214.8,691 M495.4,689.5c-4.4,1.2-7.5,1.5-11,1.5c-17.1,0-23.7-11.2-23.7-27.5c0-18.1,6.7-29.1,23.5-29.1
				c5,0,8.1,0.6,11.2,1.5V689.5z M832.7,691.2c-14.4,0-18.7-11.7-18.7-28.3c0-16.2,4.4-28.7,18.7-28.7c14.8,0,18.9,12.1,18.9,28.7
				C851.7,680.3,846.9,691.2,832.7,691.2 M561.2,651.4c1.9-11.5,8.7-18.3,19.2-18.3c11.7,0,16.2,7.9,16.7,18.3H561.2z M332.2,614.5
				c-12.3,0-19.4,4.8-26,13.3c-0.6-4.4-1.5-7.9-2.9-12.3c-2.5-0.8-6.9-1-10.6-1c-3.5,0-8.1,0.4-10.4,1v94.3c3.1,0.8,8.3,1,12.9,1
				c4.4,0,10.2-0.4,12.9-1v-46c0-18.3,9.6-28.1,22.5-28.1c2.3,0,6.2,0,8.5,0.4c1.5-6,1.7-14.8,0.4-20.8
				C338,615,334.3,614.5,332.2,614.5 M832.7,613.3c-28.9,0-45.2,19.8-45.2,49.6c0,30.2,17.1,49.1,45.2,49.1
				c29.1,0,45.4-19.4,45.4-49.1C878.1,632.9,861.9,613.3,832.7,613.3 M760.5,690.7c-12.9,0-21.4-10.2-21.4-28.1
				c0-17.1,6.9-28.1,21.7-28.1c6.2,0,10.6,1,16.4,3.3c1.7-5.8,4.8-12.5,9.2-18.1c-8.1-4.2-16-6.5-28.9-6.5c-28.5,0-45,20.2-45,49.3
				c0,30.2,16.9,49.3,46,49.3c10.6,0,20.4-1.9,28.3-6.2c-3.5-4.6-7.5-10.8-9.8-18.1C769.6,690.5,766.5,690.7,760.5,690.7
				 M680.1,653.9l-10.4-4.4c-6-2.5-9.6-4.6-9.6-8.5c0-6,5.4-7.3,12.5-7.3s14.4,0.8,24.4,4c1.2-6.9,1.2-13.3,0-19.4
				c-6.2-3.3-17.9-5-28.1-5c-20,0-35.2,10.8-35.2,27.1c0,14.6,6.2,21.9,23.7,28.9l8.1,3.3c7.7,3.1,10,5,10,10
				c0,7.5-7.5,8.7-13.7,8.7c-10.4,0-18.3-2.1-28.3-5.6c-1.7,6-1.7,13.9,0,20.2c8.5,4.6,20.2,6,32.5,6c19.8,0,35.6-10.4,35.6-29.1
				C701.6,667.4,694.9,660.1,680.1,653.9 M580.8,613.3c-27.9,0-45,18.7-45,50S553.9,712,585,712c10.6,0,22.1-1.9,29.4-5.4
				c1.5-6,1.5-13.9,0-20c-9.6,2.7-17.7,4.4-26.6,4.4c-14.4,0-24.4-5.4-26.4-20.6h58.7c0.8-2.3,1-10,1-13.1
				C621,629.1,605.2,613.3,580.8,613.3 M379.9,613.3c-10.2-0.2-19.2,1-27.9,3.1c-1.7,5.8-1.5,14.4,0,20.4
				c10.8-2.5,16.9-2.7,23.7-2.7c13.3,0,19.8,5.4,19.8,16.4v1c-4-0.4-8.7-0.8-12.1-0.8c-22.1,0-41,7.9-41,29.1
				c0,23.9,17.1,32.1,41.8,32.1c11.7,0,24.4-2.1,36-5.6v-53.9C420.3,626.6,406.3,613.9,379.9,613.3 M495.4,592.5v22.7
				c-4.6-1.2-9.4-1.5-13.5-1.5c-28.5,0-47.9,19.2-47.9,49.8c0,31.2,18.9,48.5,48.5,48.5c13.5,0,26.9-1.9,38.7-5.8V571.4
				c-7.3,2.7-15,6.5-21.4,11.7C496.5,585.8,495.4,588.5,495.4,592.5 M224.4,613.7c-7.5,0-14.8,1.7-19.4,4v-46.2
				c-7.3,2.7-15,6.5-21.4,11.7c-3.3,2.7-4.4,5.4-4.4,9.4v114.1c6.9,2.9,20.8,5.4,34.1,5.4c33.7,0,53.1-20.6,53.1-50.4
				C266.4,632,252.7,613.7,224.4,613.7"/>
			<g>
				<g>
					<path class="st0" d="M225.9,826.2l0,42.9c-1.7,0.3-4.4,0.6-6.8,0.6c-2.4,0-4.6-0.3-6.3-0.6v-42.4c0-17.6-7.4-25.1-21.8-25.1
						c-6.1,0-12.2,1.3-18.2,3.8c3.1,5.5,4.7,12.4,4.7,20.9l0,42.9c-1.7,0.3-4.4,0.6-6.8,0.6c-2.4,0-4.6-0.3-6.3-0.6v-42.7
						c0-17.1-6.4-24.8-20.7-24.8c-6.6,0-11.1,0.8-15.5,2v65.5c-1.7,0.3-4.4,0.6-6.8,0.6c-2.4,0-4.6-0.3-6.3-0.6v-73.5
						c9.1-2.7,19-4.6,29.4-4.6c8.6,0,15.7,2,21.2,6.1c7.8-3.8,17.1-6.1,26.1-6.1C212.7,791,225.9,803,225.9,826.2z"/>
					<path class="st0" d="M240,835.1l0-42.9c1.7-0.3,4.4-0.6,6.8-0.6c2.4,0,4.6,0.3,6.3,0.6v42.4c0,17.1,7.7,25,22.3,25
						c6.3,0,11.5-0.8,16-1.9v-65.5c1.7-0.3,4.2-0.6,6.6-0.6c2.4,0,4.7,0.3,6.4,0.6v73.5c-9.1,2.5-19.6,4.4-29.8,4.4
						C252.2,870.2,240,858.4,240,835.1z"/>
					<path class="st0" d="M320,869.1V768c0-2.7,0.8-4.2,2.5-5.7c3-2.4,6.8-4.6,10.5-6v112.7c-1.7,0.3-4.4,0.6-6.8,0.6
						S321.8,869.4,320,869.1z"/>
					<path class="st0" d="M387.6,858.5c0.3,1.7,0.5,3.5,0.5,5c0,1.7-0.2,3.5-0.5,5c-2.8,0.9-7.4,1.6-12.2,1.6
						c-14.8,0-27-8.9-27-30.3v-57.8c0-2.5,0.9-4.1,2.5-5.5c2.8-2.5,6.8-4.6,10.5-6v21.7h26.2c0.3,1.6,0.5,3.3,0.5,5.2
						c0,1.7-0.2,3.6-0.5,5.3h-26.2v37.4c0,12.7,6.4,19.5,15.2,19.5C381.1,859.6,384.1,859.3,387.6,858.5z"/>
					<path class="st0" d="M397.9,778.8c-0.2-2-0.3-4.6-0.3-6.6c0-2,0.2-4.6,0.3-6.4c1.9-0.5,4.6-0.5,7.1-0.5s5,0,6.8,0.5
						c0.2,1.9,0.3,4.4,0.3,6.4c0,2-0.2,4.6-0.3,6.6c-1.7,0.3-4.6,0.5-7.1,0.5S399.6,779.1,397.9,778.8z M398.2,869.1v-76.8
						c1.7-0.3,4.4-0.6,6.8-0.6c2.4,0,4.6,0.3,6.3,0.6v76.8c-1.7,0.3-4.4,0.6-6.8,0.6S399.9,869.4,398.2,869.1z"/>
					<path class="st0" d="M426.8,795.7c7.1-2.4,17.6-4.7,27.6-4.7c22.3,0,37.2,13.2,37.2,38.3c0,25-15.4,40.7-38,40.7
						c-4.9,0-9.6-0.5-13.8-1.4v24.6c0,2.5-0.9,4.2-2.5,5.7c-2.8,2.7-6.9,4.6-10.5,6V795.7z M478.4,829.3c0-17.6-8.8-27.8-24.5-27.8
						c-4.1,0-8.9,0.6-14.1,2v54.3c3.3,0.9,8,1.6,13.3,1.6C468.1,859.5,478.4,849.4,478.4,829.3z"/>
					<path class="st0" d="M564.5,833.4h-50.7c0.8,16.3,9.4,26.4,25.1,26.4c7.8,0,14.8-1.6,21.5-3.8c0.3,1.6,0.5,3.3,0.5,5
						s-0.2,3.5-0.5,5c-5.3,2.4-14,4.1-22.4,4.1c-23.2,0-36.7-15.1-36.7-39.2c0-23.9,13-39.9,33.6-39.9c17.9,0,30.1,13,30.1,33.9
						C565,827.1,564.8,831.5,564.5,833.4z M552.7,823.7c0-13.2-6.4-22.6-18.1-22.6c-11,0-19.6,8.5-20.7,22.6H552.7z"/>
					<path class="st0" d="M577.3,869.1v-73.6c9.1-2.5,19.6-4.4,30.1-4.4c22.3,0,34.9,11.9,34.9,35.2v42.9c-1.7,0.3-4.4,0.6-6.8,0.6
						c-2.4,0-4.6-0.3-6.3-0.6v-42.4c0-17.1-7.8-25.1-22.6-25.1c-6.6,0-11.9,0.8-16.3,1.9v65.6c-1.7,0.3-4.4,0.6-6.8,0.6
						S579,869.4,577.3,869.1z"/>
					<path class="st0" d="M652.8,865.6c-0.5-1.7-0.6-3.5-0.6-5.2c0-1.9,0.2-3.6,0.6-5.2c7.1,2.8,14.1,4.4,22.1,4.4
						c7.5,0,15.4-2.8,15.4-11.1c0-6.1-3.5-9.4-12.4-13.3l-5.8-2.5c-13.8-6-18.1-11.8-18.1-21.8c0-11.8,11.9-19.8,26.1-19.8
						c7.7,0,15.7,1.6,20.1,3.8c0.3,1.4,0.5,3.1,0.5,4.7c0,1.7-0.2,3.6-0.5,5.3c-6-2-11.6-3.3-18.4-3.3c-7.8,0-14.9,2.4-14.9,9.6
						c0,5.8,4.1,8,11.6,11.5l7.5,3.5c11.8,5.3,17.3,11.8,17.3,22.6c0,13.2-11.9,21.5-26.7,21.5C666.4,870.2,658.7,868.6,652.8,865.6
						z"/>
					<path class="st0" d="M713.8,778.8c-0.2-2-0.3-4.6-0.3-6.6c0-2,0.2-4.6,0.3-6.4c1.9-0.5,4.6-0.5,7.1-0.5s5,0,6.8,0.5
						c0.2,1.9,0.3,4.4,0.3,6.4c0,2-0.2,4.6-0.3,6.6c-1.7,0.3-4.6,0.5-7.1,0.5S715.6,779.1,713.8,778.8z M714.2,869.1v-76.8
						c1.7-0.3,4.4-0.6,6.8-0.6c2.4,0,4.6,0.3,6.3,0.6v76.8c-1.7,0.3-4.4,0.6-6.8,0.6S715.9,869.4,714.2,869.1z"/>
					<path class="st0" d="M739.3,830.8c0-25.1,13-39.7,33.9-39.7c21.5,0,33.9,14.4,33.9,39.7c0,24.6-12.9,39.6-34.1,39.6
						C752.2,870.3,739.3,855.6,739.3,830.8z M794,830.8c0-19.3-7.1-29.2-20.7-29.2c-13.3,0-20.7,10.2-20.7,29.2
						c0,18.7,7.1,29,20.6,29C786.7,859.8,794,849.7,794,830.8z"/>
					<path class="st0" d="M819.9,869.1v-73.6c9.1-2.5,19.6-4.4,30.1-4.4c22.3,0,34.8,11.9,34.8,35.2v42.9c-1.7,0.3-4.4,0.6-6.8,0.6
						c-2.4,0-4.6-0.3-6.3-0.6v-42.4c0-17.1-7.8-25.1-22.6-25.1c-6.6,0-11.9,0.8-16.3,1.9v65.6c-1.7,0.3-4.4,0.6-6.8,0.6
						S821.6,869.4,819.9,869.1z"/>
					<path class="st0" d="M895.3,865.6c-0.5-1.7-0.6-3.5-0.6-5.2c0-1.9,0.2-3.6,0.6-5.2c7.1,2.8,14.1,4.4,22.1,4.4
						c7.5,0,15.4-2.8,15.4-11.1c0-6.1-3.5-9.4-12.4-13.3l-5.8-2.5c-13.8-6-18.1-11.8-18.1-21.8c0-11.8,11.9-19.8,26.1-19.8
						c7.7,0,15.7,1.6,20.1,3.8c0.3,1.4,0.5,3.1,0.5,4.7c0,1.7-0.2,3.6-0.5,5.3c-6-2-11.6-3.3-18.4-3.3c-7.8,0-14.9,2.4-14.9,9.6
						c0,5.8,4.1,8,11.6,11.5l7.5,3.5c11.8,5.3,17.3,11.8,17.3,22.6c0,13.2-11.9,21.5-26.7,21.5C909,870.2,901.3,868.6,895.3,865.6z"
						/>
				</g>
			</g>
		</g>
		<rect x="0.1" y="0.1" class="st1" width="1062.6" height="984.2"/>
	</g>
</g>
</svg>
