<?xml version="1.0" encoding="utf-8"?>
<!-- Generator: Adobe Illustrator 22.0.1, SVG Export Plug-In . SVG Version: 6.00 Build 0)  -->
<svg version="1.1" xmlns="http://www.w3.org/2000/svg" xmlns:xlink="http://www.w3.org/1999/xlink" x="0px" y="0px"
	 viewBox="0 0 975.7 984.4" style="enable-background:new 0 0 975.7 984.4;" xml:space="preserve">
<style type="text/css">
	.st0{fill:#FFFFFF;}
	.st1{fill:none;}
</style>
<g id="Layer_1">
</g>
<g id="PROPORÇ_x2DC_AO_E_REGRAS">
	<g>
		<g>
			<g>
				<path class="st0" d="M476.7,200c-24.2,0-50.7,2.2-76.9,6.7c26.5-34,68.5-55.9,115.3-55.9c34.6,0,69.1,13,92.4,32.4
					c4.2,3.5,7.4,3.8,10.7,0.6c3.2-3.2,2.9-6.4-0.6-10.5c-30.4-35.3-74.9-59.1-127.6-58.2c-68.8,1.3-127.3,44.8-149.5,105.2
					c-20.3,6.4-39.1,14-55.6,23.2c-4.5,2.5-6.1,5.7-4.5,9.5c1.6,3.5,4.8,4.8,9.4,3.5c14.2-4.1,28.7-7.6,43.9-10.8
					c-1.6,7.9-2.6,16.2-2.6,24.8c-1.3,55.6,28.4,108.4,74.3,137.3c4.5,2.9,8.4,2.9,11-0.6c2.6-3.5,2.3-6.7-1.6-10.2
					c-29.1-26.1-45.2-64.8-45.2-103.3c0-19.4,3.9-38.1,11.3-55c15.2-1.3,31.7-2.2,49.7-2.2c117.6,0,216.7,38.8,216.7,89.6
					c0,25.7-32.6,51.5-71.4,68.6c-9.4,4.1-10.3,7-9,11.1c1.3,3.8,5.5,5.1,10.3,3.5c67.8-22.2,119.2-58.8,119.2-103
					C696.3,246.4,599.4,200,476.7,200"/>
				<g>
					<path class="st0" d="M524.1,372.4l-34.8,20v119.4h37.2c3.5,0,6.3-2.8,6.3-6.3V376.9C532.8,371.9,528,370.1,524.1,372.4z"/>
					<path class="st0" d="M479.5,398l-23.8,13.7c-2.5,1.4-4.1,3.7-4.1,7v89c0,2.2,1.8,4,4,4h23.9V398z"/>
				</g>
			</g>
			<path class="st0" d="M343.8,691.8c-11.9,0-18.3-3.5-18.3-11.9s6.5-11.7,18.3-11.7c4,0,8.5,0.4,11,0.6v21.9
				C353.4,691.2,346.9,691.8,343.8,691.8 M174.1,691c-2.7,0-6.9,0-9.8-1v-51.8c3.5-1.9,8.5-2.9,15-2.9c12.9,0,19.8,9,19.8,25.8
				C199.1,678.7,191,691,174.1,691 M454.8,689.5c-4.4,1.2-7.5,1.5-11,1.5c-17.1,0-23.7-11.2-23.7-27.5c0-18.1,6.7-29.1,23.5-29.1
				c5,0,8.1,0.6,11.2,1.5V689.5z M792.1,691.2c-14.4,0-18.7-11.7-18.7-28.3c0-16.2,4.4-28.7,18.7-28.7c14.8,0,18.9,12.1,18.9,28.7
				C811,680.4,806.2,691.2,792.1,691.2 M520.6,651.4c1.9-11.5,8.7-18.3,19.2-18.3c11.7,0,16.2,7.9,16.7,18.3H520.6z M291.5,614.6
				c-12.3,0-19.4,4.8-26,13.3c-0.6-4.4-1.5-7.9-2.9-12.3c-2.5-0.8-6.9-1-10.6-1c-3.5,0-8.1,0.4-10.4,1v94.3c3.1,0.8,8.3,1,12.9,1
				c4.4,0,10.2-0.4,12.9-1v-46c0-18.3,9.6-28.1,22.5-28.1c2.3,0,6.2,0,8.5,0.4c1.5-6,1.7-14.8,0.4-20.8
				C297.4,615,293.6,614.6,291.5,614.6 M792.1,613.3c-28.9,0-45.2,19.8-45.2,49.6c0,30.2,17.1,49.1,45.2,49.1
				c29.1,0,45.4-19.4,45.4-49.1C837.4,632.9,821.2,613.3,792.1,613.3 M719.8,690.8c-12.9,0-21.4-10.2-21.4-28.1
				c0-17.1,6.9-28.1,21.7-28.1c6.2,0,10.6,1,16.4,3.3c1.7-5.8,4.8-12.5,9.2-18.1c-8.1-4.2-16-6.5-28.9-6.5c-28.5,0-45,20.2-45,49.3
				c0,30.2,16.9,49.3,46,49.3c10.6,0,20.4-1.9,28.3-6.2c-3.5-4.6-7.5-10.8-9.8-18.1C729,690.6,725.9,690.8,719.8,690.8 M639.4,653.9
				l-10.4-4.4c-6-2.5-9.6-4.6-9.6-8.5c0-6,5.4-7.3,12.5-7.3s14.4,0.8,24.4,4c1.2-6.9,1.2-13.3,0-19.4c-6.2-3.3-17.9-5-28.1-5
				c-20,0-35.2,10.8-35.2,27.1c0,14.6,6.2,21.9,23.7,28.9l8.1,3.3c7.7,3.1,10,5,10,10c0,7.5-7.5,8.7-13.7,8.7
				c-10.4,0-18.3-2.1-28.3-5.6c-1.7,6-1.7,13.9,0,20.2c8.5,4.6,20.2,6,32.5,6c19.8,0,35.6-10.4,35.6-29.1
				C660.9,667.5,654.2,660.2,639.4,653.9 M540.1,613.3c-27.9,0-45,18.7-45,50c0,31.2,18.1,48.7,49.1,48.7c10.6,0,22.1-1.9,29.4-5.4
				c1.5-6,1.5-13.9,0-20c-9.6,2.7-17.7,4.4-26.6,4.4c-14.4,0-24.4-5.4-26.4-20.6h58.7c0.8-2.3,1-10,1-13.1
				C580.3,629.2,564.5,613.3,540.1,613.3 M339.2,613.3c-10.2-0.2-19.2,1-27.9,3.1c-1.7,5.8-1.5,14.4,0,20.4
				c10.8-2.5,16.9-2.7,23.7-2.7c13.3,0,19.8,5.4,19.8,16.4v1c-4-0.4-8.7-0.8-12.1-0.8c-22.1,0-41,7.9-41,29.1
				c0,23.9,17.1,32.1,41.8,32.1c11.7,0,24.4-2.1,36-5.6v-53.9C379.6,626.7,365.7,614,339.2,613.3 M454.8,592.5v22.7
				c-4.6-1.2-9.4-1.5-13.5-1.5c-28.5,0-47.9,19.2-47.9,49.8c0,31.2,18.9,48.5,48.5,48.5c13.5,0,26.9-1.9,38.7-5.8V571.5
				c-7.3,2.7-15,6.5-21.4,11.7C455.8,585.8,454.8,588.6,454.8,592.5 M183.7,613.7c-7.5,0-14.8,1.7-19.4,4v-46.2
				c-7.3,2.7-15,6.5-21.4,11.7c-3.3,2.7-4.4,5.4-4.4,9.4v114.1c6.9,2.9,20.8,5.4,34.1,5.4c33.7,0,53.1-20.6,53.1-50.4
				C225.8,632.1,212,613.7,183.7,613.7"/>
			<g>
				<g>
					<path class="st0" d="M114.2,830.6c0-23.5,13-39.6,34.5-39.6c7.5,0,13.3,1.4,18.7,3.8c0.3,1.6,0.5,3.3,0.5,5
						c0,1.6-0.2,3.6-0.5,5.3c-5.3-2.2-10.5-3.5-16.3-3.5c-16.3,0-23.7,10.7-23.7,28.7c0,18.1,7.2,29,23.9,29
						c6.6,0,12.2-1.4,17.4-3.1c0.3,1.6,0.5,3.3,0.5,5s-0.2,3.6-0.5,5.2c-5.8,2.5-12.1,3.6-19.5,3.6
						C126.6,870.2,114.2,855,114.2,830.6z"/>
					<path class="st0" d="M234.7,822.2v44.3c-8.6,2.5-18.2,3.9-27.3,3.9c-17.7,0-30.6-7.5-30.6-24.5c0-14.8,11.9-23.4,31.6-23.4
						c6.1,0,9.9,0.3,14.1,0.9v-3c0-13-7.1-18.8-19.6-18.8c-6.8,0-13,0.8-19.8,2.7c-0.3-1.6-0.5-3.5-0.5-5.3c0-1.7,0.2-3.5,0.5-4.9
						c5.8-1.9,13.5-3,20.3-3C222.3,791.1,234.7,800.3,234.7,822.2z M222.5,858.6v-25.9c-3.8-0.6-7.7-0.8-13.2-0.8
						c-13.5,0-20.4,3.9-20.4,13.7c0,9.4,6.6,14.6,18.8,14.6C212.6,860.1,219.2,859.4,222.5,858.6z"/>
					<path class="st0" d="M249.9,795.8c7.1-2.4,17.6-4.7,27.6-4.7c22.3,0,37.2,13.2,37.2,38.3c0,25-15.4,40.7-38,40.7
						c-4.9,0-9.6-0.5-13.8-1.4v24.6c0,2.5-0.9,4.2-2.5,5.7c-2.8,2.7-6.9,4.6-10.5,6V795.8z M301.6,829.4c0-17.6-8.8-27.8-24.5-27.8
						c-4.1,0-8.9,0.6-14.1,2v54.3c3.3,0.9,8,1.6,13.3,1.6C291.2,859.5,301.6,849.5,301.6,829.4z"/>
					<path class="st0" d="M326.7,778.8c-0.2-2-0.3-4.6-0.3-6.6c0-2,0.2-4.6,0.3-6.4c1.9-0.5,4.6-0.5,7.1-0.5s5,0,6.8,0.5
						c0.2,1.9,0.3,4.4,0.3,6.4c0,2-0.2,4.6-0.3,6.6c-1.7,0.3-4.6,0.5-7.1,0.5S328.4,779.1,326.7,778.8z M327,869.1v-76.8
						c1.7-0.3,4.4-0.6,6.8-0.6c2.4,0,4.6,0.3,6.3,0.6v76.8c-1.7,0.3-4.4,0.6-6.8,0.6S328.7,869.4,327,869.1z"/>
					<path class="st0" d="M394.2,858.6c0.3,1.7,0.5,3.5,0.5,5c0,1.7-0.2,3.5-0.5,5c-2.8,0.9-7.4,1.6-12.2,1.6
						c-14.8,0-27-8.9-27-30.3v-57.8c0-2.5,0.9-4.1,2.5-5.5c2.8-2.5,6.8-4.6,10.5-6v21.7h26.2c0.3,1.6,0.5,3.3,0.5,5.2
						c0,1.7-0.2,3.6-0.5,5.3H368v37.4c0,12.7,6.4,19.5,15.2,19.5C387.8,859.7,390.8,859.4,394.2,858.6z"/>
					<path class="st0" d="M459.8,822.2v44.3c-8.6,2.5-18.2,3.9-27.3,3.9c-17.7,0-30.6-7.5-30.6-24.5c0-14.8,11.9-23.4,31.6-23.4
						c6.1,0,9.9,0.3,14.1,0.9v-3c0-13-7.1-18.8-19.6-18.8c-6.8,0-13,0.8-19.8,2.7c-0.3-1.6-0.5-3.5-0.5-5.3c0-1.7,0.2-3.5,0.5-4.9
						c5.8-1.9,13.5-3,20.3-3C447.4,791.1,459.8,800.3,459.8,822.2z M447.6,858.6v-25.9c-3.8-0.6-7.7-0.8-13.2-0.8
						c-13.5,0-20.4,3.9-20.4,13.7c0,9.4,6.6,14.6,18.8,14.6C437.7,860.1,444.3,859.4,447.6,858.6z"/>
					<path class="st0" d="M475.1,869.1V768c0-2.7,0.8-4.2,2.5-5.7c3-2.4,6.8-4.6,10.5-6v112.7c-1.7,0.3-4.4,0.6-6.8,0.6
						S476.8,869.4,475.1,869.1z"/>
					<path class="st0" d="M503.3,778.8c-0.2-2-0.3-4.6-0.3-6.6c0-2,0.2-4.6,0.3-6.4c1.9-0.5,4.6-0.5,7.1-0.5s5,0,6.8,0.5
						c0.2,1.9,0.3,4.4,0.3,6.4c0,2-0.2,4.6-0.3,6.6c-1.7,0.3-4.6,0.5-7.1,0.5S505,779.1,503.3,778.8z M503.6,869.1v-76.8
						c1.7-0.3,4.4-0.6,6.8-0.6c2.4,0,4.6,0.3,6.3,0.6v76.8c-1.7,0.3-4.4,0.6-6.8,0.6S505.3,869.4,503.6,869.1z"/>
					<path class="st0" d="M527,864.5c0-2.4,0.3-3.6,1.6-5.3l38.1-56.4l-38.6,0c-0.3-1.7-0.5-3.5-0.5-5.2c0-1.9,0.2-3.6,0.5-5.3h54.3
						c0.2,1.3,0.2,2.5,0.2,3.8c0,3-0.3,4.6-1.6,6.4l-38.1,56h41.4c0.3,1.7,0.5,3.5,0.5,5.2c0,1.9-0.2,3.6-0.5,5.3h-57.1
						C527,867.5,527,866.1,527,864.5z"/>
					<path class="st0" d="M649.7,822.2v44.3c-8.6,2.5-18.2,3.9-27.3,3.9c-17.7,0-30.6-7.5-30.6-24.5c0-14.8,11.9-23.4,31.6-23.4
						c6.1,0,9.9,0.3,14.1,0.9v-3c0-13-7.1-18.8-19.6-18.8c-6.8,0-13,0.8-19.8,2.7c-0.3-1.6-0.5-3.5-0.5-5.3c0-1.7,0.2-3.5,0.5-4.9
						c5.8-1.9,13.5-3,20.3-3C637.3,791.1,649.7,800.3,649.7,822.2z M637.4,858.6v-25.9c-3.8-0.6-7.7-0.8-13.2-0.8
						c-13.5,0-20.4,3.9-20.4,13.7c0,9.4,6.6,14.6,18.8,14.6C627.5,860.1,634.1,859.4,637.4,858.6z"/>
					<path class="st0" d="M716,866.6c-4.6,2-9.6,3.1-15.1,3.5c2.2,3,3.6,6.3,3.6,10c0,9.4-7.1,14.6-16.6,14.6
						c-5.2,0-9.1-0.9-12.7-2.5c-0.2-1.3-0.3-2.5-0.3-4.2s0.2-3.3,0.3-4.4c3.8,1.6,7.1,2.4,11.1,2.4c5.2,0,8.5-3,8.5-7.7
						c0-2.8-0.9-5.5-3-8.2c-19.6-2-30.3-16.8-30.3-39.4c0-23.5,13-39.6,34.5-39.6c7.5,0,13.3,1.4,18.7,3.8c0.3,1.6,0.5,3.3,0.5,5
						c0,1.6-0.2,3.6-0.5,5.3c-5.3-2.2-10.5-3.5-16.3-3.5c-16.3,0-23.7,10.7-23.7,28.7c0,18.1,7.2,29,23.9,29
						c6.6,0,12.2-1.4,17.4-3.1c0.3,1.6,0.5,3.3,0.5,5S716.3,865,716,866.6z"/>
					<path class="st0" d="M782.1,822.2v44.3c-8.6,2.5-18.2,3.9-27.3,3.9c-17.7,0-30.6-7.5-30.6-24.5c0-14.8,11.9-23.4,31.6-23.4
						c6.1,0,9.9,0.3,14.1,0.9v-3c0-13-7.1-18.8-19.6-18.8c-6.8,0-13,0.8-19.8,2.7c-0.3-1.6-0.5-3.5-0.5-5.3c0-1.7,0.2-3.5,0.5-4.9
						c5.8-1.9,13.5-3,20.3-3C769.7,791.1,782.1,800.3,782.1,822.2z M732.5,779c-0.3-1.1-0.5-2.8-0.5-4.4c0-1.6,0.2-3,0.5-4.4
						c3.3-2.7,7.5-4.7,12.2-4.7c3.1,0,6,1.1,8.6,2.4c2.8,1.3,6,2.5,9.9,2.5c4.4,0,8.6-1.7,12.2-4.4c0.2,1.3,0.3,2.8,0.3,4.4
						c0,1.6-0.2,3.1-0.3,4.6c-3.5,2.7-7.5,4.6-12.2,4.6c-4.1,0-7.4-1.4-10.2-2.7c-2.5-1.1-5.3-2.2-8.3-2.2
						C740.4,774.6,736,776.3,732.5,779z M769.9,858.6v-25.9c-3.8-0.6-7.7-0.8-13.2-0.8c-13.5,0-20.4,3.9-20.4,13.7
						c0,9.4,6.6,14.6,18.8,14.6C760,860.1,766.6,859.4,769.9,858.6z"/>
					<path class="st0" d="M794,830.8c0-25.1,13-39.7,33.9-39.7c21.5,0,33.9,14.4,33.9,39.7c0,24.6-12.9,39.6-34.1,39.6
						C806.9,870.3,794,855.6,794,830.8z M848.6,830.8c0-19.3-7.1-29.2-20.7-29.2c-13.3,0-20.7,10.2-20.7,29.2c0,18.7,7.1,29,20.6,29
						C841.4,859.8,848.6,849.8,848.6,830.8z"/>
				</g>
			</g>
		</g>
		<rect x="0.1" y="0.1" class="st1" width="975.6" height="984.2"/>
	</g>
</g>
</svg>
