<?xml version="1.0" encoding="utf-8"?>
<!-- Generator: Adobe Illustrator 22.0.1, SVG Export Plug-In . SVG Version: 6.00 Build 0)  -->
<svg version="1.1" xmlns="http://www.w3.org/2000/svg" xmlns:xlink="http://www.w3.org/1999/xlink" x="0px" y="0px"
	 viewBox="0 0 1292.6 984.4" style="enable-background:new 0 0 1292.6 984.4;" xml:space="preserve">
<style type="text/css">
	.st0{fill:#FFFFFF;}
	.st1{fill:none;}
</style>
<g id="Layer_1">
</g>
<g id="PROPORÇ_x2DC_AO_E_REGRAS">
	<g>
		<g>
			<g>
				<path class="st0" d="M638.7,200c-24.2,0-50.7,2.2-76.9,6.7c26.5-34,68.5-55.9,115.3-55.9c34.6,0,69.1,13,92.4,32.4
					c4.2,3.5,7.4,3.8,10.7,0.6c3.2-3.2,2.9-6.4-0.6-10.5c-30.4-35.3-74.9-59.1-127.6-58.2c-68.8,1.3-127.3,44.8-149.5,105.2
					c-20.3,6.4-39.1,14-55.6,23.2c-4.5,2.5-6.1,5.7-4.5,9.5c1.6,3.5,4.8,4.8,9.4,3.5c14.2-4.1,28.7-7.6,43.9-10.8
					c-1.6,7.9-2.6,16.2-2.6,24.8c-1.3,55.6,28.4,108.4,74.3,137.3c4.5,2.9,8.4,2.9,11-0.6c2.6-3.5,2.3-6.7-1.6-10.2
					c-29.1-26.1-45.2-64.8-45.2-103.3c0-19.4,3.9-38.1,11.3-55c15.2-1.3,31.7-2.2,49.7-2.2c117.6,0,216.7,38.8,216.7,89.6
					c0,25.7-32.6,51.5-71.4,68.6c-9.4,4.1-10.3,7-9,11.1c1.3,3.8,5.5,5.1,10.3,3.5c67.8-22.2,119.2-58.8,119.2-103
					C858.3,246.4,761.4,200,638.7,200"/>
				<g>
					<path class="st0" d="M686.1,372.3l-34.8,20v119.4h37.2c3.5,0,6.3-2.8,6.3-6.3V376.8C694.8,371.9,690,370.1,686.1,372.3z"/>
					<path class="st0" d="M641.5,398l-23.8,13.7c-2.5,1.4-4.1,3.7-4.1,7v89c0,2.2,1.8,4,4,4h23.9V398z"/>
				</g>
			</g>
			<path class="st0" d="M505.8,691.8c-11.9,0-18.3-3.5-18.3-11.9s6.5-11.7,18.3-11.7c4,0,8.5,0.4,11,0.6v21.9
				C515.4,691.2,508.9,691.8,505.8,691.8 M336.1,691c-2.7,0-6.9,0-9.8-1v-51.8c3.5-1.9,8.5-2.9,15-2.9c12.9,0,19.8,9,19.8,25.8
				C361.1,678.7,353,691,336.1,691 M616.8,689.5c-4.4,1.2-7.5,1.5-11,1.5c-17.1,0-23.7-11.2-23.7-27.5c0-18.1,6.7-29.1,23.5-29.1
				c5,0,8.1,0.6,11.2,1.5V689.5z M954.1,691.2c-14.4,0-18.7-11.7-18.7-28.3c0-16.2,4.4-28.7,18.7-28.7c14.8,0,18.9,12.1,18.9,28.7
				C973,680.3,968.2,691.2,954.1,691.2 M682.6,651.4c1.9-11.5,8.7-18.3,19.2-18.3c11.7,0,16.2,7.9,16.7,18.3H682.6z M453.5,614.5
				c-12.3,0-19.4,4.8-26,13.3c-0.6-4.4-1.5-7.9-2.9-12.3c-2.5-0.8-6.9-1-10.6-1c-3.5,0-8.1,0.4-10.4,1v94.3c3.1,0.8,8.3,1,12.9,1
				c4.4,0,10.2-0.4,12.9-1v-46c0-18.3,9.6-28.1,22.5-28.1c2.3,0,6.2,0,8.5,0.4c1.5-6,1.7-14.8,0.4-20.8
				C459.4,615,455.6,614.5,453.5,614.5 M954.1,613.3c-28.9,0-45.2,19.8-45.2,49.6c0,30.2,17.1,49.1,45.2,49.1
				c29.1,0,45.4-19.4,45.4-49.1C999.4,632.9,983.2,613.3,954.1,613.3 M881.8,690.8c-12.9,0-21.4-10.2-21.4-28.1
				c0-17.1,6.9-28.1,21.7-28.1c6.2,0,10.6,1,16.4,3.3c1.7-5.8,4.8-12.5,9.2-18.1c-8.1-4.2-16-6.5-28.9-6.5c-28.5,0-45,20.2-45,49.3
				c0,30.2,16.9,49.3,46,49.3c10.6,0,20.4-1.9,28.3-6.2c-3.5-4.6-7.5-10.8-9.8-18.1C891,690.5,887.9,690.8,881.8,690.8 M801.4,653.9
				l-10.4-4.4c-6-2.5-9.6-4.6-9.6-8.5c0-6,5.4-7.3,12.5-7.3s14.4,0.8,24.4,4c1.2-6.9,1.2-13.3,0-19.4c-6.2-3.3-17.9-5-28.1-5
				c-20,0-35.2,10.8-35.2,27.1c0,14.6,6.2,21.9,23.7,28.9l8.1,3.3c7.7,3.1,10,5,10,10c0,7.5-7.5,8.7-13.7,8.7
				c-10.4,0-18.3-2.1-28.3-5.6c-1.7,6-1.7,13.9,0,20.2c8.5,4.6,20.2,6,32.5,6c19.8,0,35.6-10.4,35.6-29.1
				C822.9,667.4,816.2,660.1,801.4,653.9 M702.1,613.3c-27.9,0-45,18.7-45,50s18.1,48.7,49.1,48.7c10.6,0,22.1-1.9,29.4-5.4
				c1.5-6,1.5-13.9,0-20c-9.6,2.7-17.7,4.4-26.6,4.4c-14.4,0-24.4-5.4-26.4-20.6h58.7c0.8-2.3,1-10,1-13.1
				C742.3,629.1,726.5,613.3,702.1,613.3 M501.2,613.3c-10.2-0.2-19.2,1-27.9,3.1c-1.7,5.8-1.5,14.4,0,20.4
				c10.8-2.5,16.9-2.7,23.7-2.7c13.3,0,19.8,5.4,19.8,16.4v1c-4-0.4-8.7-0.8-12.1-0.8c-22.1,0-41,7.9-41,29.1
				c0,23.9,17.1,32.1,41.8,32.1c11.7,0,24.4-2.1,36-5.6v-53.9C541.6,626.6,527.7,613.9,501.2,613.3 M616.8,592.5v22.7
				c-4.6-1.2-9.4-1.5-13.5-1.5c-28.5,0-47.9,19.2-47.9,49.8c0,31.2,18.9,48.5,48.5,48.5c13.5,0,26.9-1.9,38.7-5.8V571.5
				c-7.3,2.7-15,6.5-21.4,11.7C617.8,585.8,616.8,588.5,616.8,592.5 M345.7,613.7c-7.5,0-14.8,1.7-19.4,4v-46.2
				c-7.3,2.7-15,6.5-21.4,11.7c-3.3,2.7-4.4,5.4-4.4,9.4v114.1c6.9,2.9,20.8,5.4,34.1,5.4c33.7,0,53.1-20.6,53.1-50.4
				C387.8,632,374,613.7,345.7,613.7"/>
			<g>
				<g>
					<path class="st0" d="M144.8,869.1L114,792.3c2.5-0.5,4.7-0.6,7.1-0.6c2.4,0,4.7,0.2,7.2,0.6l22.1,59.7l22.1-59.7
						c2.5-0.5,4.4-0.6,6.8-0.6c2.4,0,4.4,0.2,6.9,0.6l-30.8,76.8c-1.9,0.3-3.5,0.5-5.2,0.5C148.4,869.5,146.7,869.4,144.8,869.1z"/>
					<path class="st0" d="M194.7,778.8c-0.2-2-0.3-4.6-0.3-6.6c0-2,0.2-4.6,0.3-6.4c1.9-0.5,4.6-0.5,7.1-0.5s5,0,6.8,0.5
						c0.2,1.9,0.3,4.4,0.3,6.4c0,2-0.2,4.6-0.3,6.6c-1.7,0.3-4.6,0.5-7.1,0.5S196.5,779.1,194.7,778.8z M195.1,869.1v-76.8
						c1.7-0.3,4.4-0.6,6.8-0.6c2.4,0,4.6,0.3,6.3,0.6v76.8c-1.7,0.3-4.4,0.6-6.8,0.6S196.8,869.4,195.1,869.1z"/>
					<path class="st0" d="M219.9,831.9c0-25.1,15.1-40.8,37.8-40.8c4.9,0,9.6,0.5,14,1.6V768c0-2.7,0.8-4.2,2.4-5.7
						c3-2.5,7.1-4.6,10.7-6v109.3c-6.9,2.4-17.3,4.7-27.8,4.7C234.7,870.3,219.9,857,219.9,831.9z M271.7,857.8v-54.6
						c-3.5-0.9-8-1.6-13.3-1.6c-15.2,0-25.3,10-25.3,30.3c0,17.6,8.8,27.9,24.3,27.9C261.7,859.8,266.6,859.2,271.7,857.8z"/>
					<path class="st0" d="M353.8,822.1v44.3c-8.6,2.5-18.2,3.9-27.3,3.9c-17.7,0-30.6-7.5-30.6-24.5c0-14.8,11.9-23.4,31.6-23.4
						c6.1,0,9.9,0.3,14.1,0.9v-3c0-13-7.1-18.8-19.6-18.8c-6.8,0-13,0.8-19.8,2.7c-0.3-1.6-0.5-3.5-0.5-5.3c0-1.7,0.2-3.5,0.5-4.9
						c5.8-1.9,13.5-3,20.3-3C341.4,791,353.8,800.3,353.8,822.1z M341.5,858.5v-25.9c-3.8-0.6-7.7-0.8-13.2-0.8
						c-13.5,0-20.4,3.9-20.4,13.7c0,9.4,6.6,14.6,18.8,14.6C331.6,860.1,338.2,859.3,341.5,858.5z"/>
					<path class="st0" d="M462.9,833.4h-50.7c0.8,16.3,9.4,26.4,25.1,26.4c7.8,0,14.8-1.6,21.5-3.8c0.3,1.6,0.5,3.3,0.5,5
						s-0.2,3.5-0.5,5c-5.3,2.4-14,4.1-22.4,4.1c-23.2,0-36.7-15.1-36.7-39.2c0-23.9,13-39.9,33.6-39.9c17.9,0,30.1,13,30.1,33.9
						C463.3,827.1,463.2,831.5,462.9,833.4z M451.1,823.7c0-13.2-6.4-22.6-18.1-22.6c-11,0-19.6,8.5-20.7,22.6H451.1z"/>
					<path class="st0" d="M509.3,795.7c7.1-2.4,17.6-4.7,27.6-4.7c22.3,0,37.2,13.2,37.2,38.3c0,25-15.4,40.7-38,40.7
						c-4.9,0-9.6-0.5-13.8-1.4v24.6c0,2.5-0.9,4.2-2.5,5.7c-2.8,2.7-6.9,4.6-10.5,6V795.7z M561,829.3c0-17.6-8.8-27.8-24.5-27.8
						c-4.1,0-8.9,0.6-14.1,2v54.3c3.3,0.9,8,1.6,13.3,1.6C550.6,859.5,561,849.4,561,829.3z"/>
					<path class="st0" d="M586.6,869.1v-76.8c1.6-0.3,3.6-0.6,5.7-0.6c1.7,0,3.9,0.2,5.5,0.6c0.6,3.3,1.1,7.1,1.3,10.7
						c5.3-7.4,12.4-11.3,20.7-11.3c2,0,4.1,0.3,6,0.6c0.3,1.6,0.5,3.3,0.5,4.9c0,1.7-0.2,3.8-0.6,5.7c-1.6-0.5-3.9-0.5-6-0.5
						c-11.1,0-19.9,9.4-19.9,23.4v43.3c-1.7,0.3-4.4,0.6-6.8,0.6S588.3,869.4,586.6,869.1z"/>
					<path class="st0" d="M693.3,833.4h-50.7c0.8,16.3,9.4,26.4,25.1,26.4c7.8,0,14.8-1.6,21.5-3.8c0.3,1.6,0.5,3.3,0.5,5
						s-0.2,3.5-0.5,5c-5.3,2.4-14,4.1-22.4,4.1c-23.2,0-36.7-15.1-36.7-39.2c0-23.9,13-39.9,33.6-39.9c17.9,0,30.1,13,30.1,33.9
						C693.8,827.1,693.7,831.5,693.3,833.4z M681.6,823.7c0-13.2-6.4-22.6-18.1-22.6c-11,0-19.6,8.5-20.7,22.6H681.6z"/>
					<path class="st0" d="M727.3,869.1l-30.8-76.8c2.5-0.5,4.7-0.6,7.1-0.6c2.4,0,4.7,0.2,7.2,0.6l22.1,59.7l22.1-59.7
						c2.5-0.5,4.4-0.6,6.8-0.6c2.4,0,4.4,0.2,6.9,0.6l-30.8,76.8c-1.9,0.3-3.5,0.5-5.2,0.5C730.9,869.5,729.1,869.4,727.3,869.1z"/>
					<path class="st0" d="M777.2,778.8c-0.2-2-0.3-4.6-0.3-6.6c0-2,0.2-4.6,0.3-6.4c1.9-0.5,4.6-0.5,7.1-0.5s5,0,6.8,0.5
						c0.2,1.9,0.3,4.4,0.3,6.4c0,2-0.2,4.6-0.3,6.6c-1.7,0.3-4.6,0.5-7.1,0.5S778.9,779.1,777.2,778.8z M777.5,869.1v-76.8
						c1.7-0.3,4.4-0.6,6.8-0.6c2.4,0,4.6,0.3,6.3,0.6v76.8c-1.7,0.3-4.4,0.6-6.8,0.6S779.2,869.4,777.5,869.1z"/>
					<path class="st0" d="M802.4,831.9c0-25.1,15.1-40.8,37.8-40.8c4.9,0,9.6,0.5,14,1.6V768c0-2.7,0.8-4.2,2.4-5.7
						c3-2.5,7.1-4.6,10.7-6v109.3c-6.9,2.4-17.3,4.7-27.8,4.7C817.2,870.3,802.4,857,802.4,831.9z M854.2,857.8v-54.6
						c-3.5-0.9-8-1.6-13.3-1.6c-15.2,0-25.3,10-25.3,30.3c0,17.6,8.8,27.9,24.3,27.9C844.2,859.8,849,859.2,854.2,857.8z"/>
					<path class="st0" d="M942.9,833.4h-50.7c0.8,16.3,9.4,26.4,25.1,26.4c7.8,0,14.8-1.6,21.5-3.8c0.3,1.6,0.5,3.3,0.5,5
						s-0.2,3.5-0.5,5c-5.3,2.4-14,4.1-22.4,4.1c-23.2,0-36.7-15.1-36.7-39.2c0-23.9,13-39.9,33.6-39.9c17.9,0,30.1,13,30.1,33.9
						C943.4,827.1,943.3,831.5,942.9,833.4z M901.3,781.3c-1.6,0.3-3.1,0.5-5,0.5c-1.7,0-3.9-0.2-5.7-0.5l17.4-19.9
						c1.7-0.3,3.6-0.5,5.2-0.5c1.7,0,3.5,0.2,5.2,0.5l17.4,19.9c-1.6,0.3-3.9,0.5-5.8,0.5c-1.7,0-3.6-0.2-5.3-0.5l-11.5-12.6
						L901.3,781.3L901.3,781.3z M931.2,823.7c0-13.2-6.4-22.6-18.1-22.6c-11,0-19.6,8.5-20.7,22.6H931.2z"/>
					<path class="st0" d="M955.7,869.1v-73.6c9.1-2.5,19.6-4.4,30.1-4.4c22.3,0,34.9,11.9,34.9,35.2l0,42.9
						c-1.7,0.3-4.4,0.6-6.8,0.6s-4.6-0.3-6.3-0.6v-42.4c0-17.1-7.8-25.1-22.6-25.1c-6.6,0-11.9,0.8-16.3,1.9v65.6
						c-1.7,0.3-4.4,0.6-6.8,0.6S957.5,869.4,955.7,869.1z"/>
					<path class="st0" d="M1032.3,830.6c0-23.5,13-39.6,34.5-39.6c7.5,0,13.3,1.4,18.7,3.8c0.3,1.6,0.5,3.3,0.5,5
						c0,1.6-0.2,3.6-0.5,5.3c-5.3-2.2-10.5-3.5-16.3-3.5c-16.3,0-23.7,10.7-23.7,28.7c0,18.1,7.2,29,23.9,29
						c6.6,0,12.2-1.4,17.4-3.1c0.3,1.6,0.5,3.3,0.5,5s-0.2,3.6-0.5,5.2c-5.8,2.5-12.1,3.6-19.5,3.6
						C1044.7,870.2,1032.3,854.9,1032.3,830.6z"/>
					<path class="st0" d="M1096.8,778.8c-0.2-2-0.3-4.6-0.3-6.6c0-2,0.2-4.6,0.3-6.4c1.9-0.5,4.6-0.5,7.1-0.5s5,0,6.8,0.5
						c0.2,1.9,0.3,4.4,0.3,6.4c0,2-0.2,4.6-0.3,6.6c-1.7,0.3-4.6,0.5-7.1,0.5S1098.6,779.1,1096.8,778.8z M1097.1,869.1v-76.8
						c1.7-0.3,4.4-0.6,6.8-0.6c2.4,0,4.6,0.3,6.3,0.6v76.8c-1.7,0.3-4.4,0.6-6.8,0.6C1101.1,869.7,1098.9,869.4,1097.1,869.1z"/>
					<path class="st0" d="M1178.7,822.1v44.3c-8.6,2.5-18.2,3.9-27.3,3.9c-17.7,0-30.6-7.5-30.6-24.5c0-14.8,11.9-23.4,31.6-23.4
						c6.1,0,9.9,0.3,14.1,0.9v-3c0-13-7.1-18.8-19.6-18.8c-6.8,0-13,0.8-19.8,2.7c-0.3-1.6-0.5-3.5-0.5-5.3c0-1.7,0.2-3.5,0.5-4.9
						c5.8-1.9,13.5-3,20.3-3C1166.3,791,1178.7,800.3,1178.7,822.1z M1166.5,858.5v-25.9c-3.8-0.6-7.7-0.8-13.2-0.8
						c-13.5,0-20.4,3.9-20.4,13.7c0,9.4,6.6,14.6,18.8,14.6C1156.6,860.1,1163.2,859.3,1166.5,858.5z"/>
				</g>
			</g>
		</g>
		<rect x="0.3" y="0.1" class="st1" width="1292.1" height="984.2"/>
	</g>
</g>
</svg>
