<svg xmlns:svg="http://www.w3.org/2000/svg" xmlns="http://www.w3.org/2000/svg" version="1.1" width="400" height="400">
  <g transform="translate(0,-652.36218)">
    <g transform="matrix(0.2951006,0,0,0.2951006,-3138.8375,-2336.2691)">
      <rect fill="#ff6600" width="1355.47" height="1355.47" rx="116.97" ry="116.97" x="10636.5" y="10127.5" />
      <g>
        <path fill="#ffffff" d="m 11074.291,10448.072 114.205,0 0,673.428 -130.25,0 0,-500.706 c -11.326,11.641 -23.596,21.709 -36.81,30.203 -13.214,8.495 -27.686,15.574 -43.416,21.236 l 0,-120.811 c 23.281,-13.213 43.023,-28.472 59.226,-45.776 16.202,-17.303 28.551,-36.495 37.045,-57.574 z" />
      </g>
      <g>
        <path fill="#ffffff" d="m 11464.892,10546.231 -86.362,327.04 87.305,0 7.551,-327.04 z m -59.934,-98.159 184.52,0 0,425.199 81.17,0 0,100.518 -81.17,0 0,147.711 -127.89,0 0,-147.711 -182.632,0 0,-115.148 z" />
      </g>
    </g>
  </g>
</svg>
