<svg xmlns:cc="http://creativecommons.org/ns#" xmlns:rdf="http://www.w3.org/1999/02/22-rdf-syntax-ns#" xmlns:svg="http://www.w3.org/2000/svg" xmlns="http://www.w3.org/2000/svg" width="354pt" height="354pt" viewBox="0 0 354 354" version="1.1">
  <path fill="#00af51" d=" M 24.04 1.33 C 28.26 0.34 32.63 0.68 36.92 0.69 C 129.93 0.64 222.94 0.69 315.94 0.67 C 321.14 0.81 326.48 0.10 331.53 1.71 C 341.18 4.45 349.38 12.30 352.10 22.02 C 353.96 27.50 353.27 33.37 353.33 39.05 C 353.31 133.68 353.36 228.32 353.33 322.96 C 353.99 336.73 343.41 349.64 330.16 352.70 C 324.85 353.91 319.38 353.10 314.00 353.34 C 219.03 353.29 124.07 353.37 29.10 353.30 C 13.52 353.01 -0.07 338.60 0.63 323.03 C 0.73 225.05 0.62 127.07 0.66 29.09 C 1.12 16.00 11.23 4.03 24.04 1.33 Z"/>
  <path d="m 128.92667,98.96268 c 14.42,-0.25 28.86,-0.04 43.29,-0.09 0.38,42.24 0.11,84.49999 0.13,126.73999 23.22,0.12 46.44001,-0.18 69.65001,0.15 0.29,10.04 0.12,20.1 0.08,30.15 -37.72001,0.14 -75.44001,0.03 -113.16001,0.04 -0.07,-52.33 -0.09,-104.65999 0.01,-156.98999 z" fill="#ffffff"/>
</svg>
