<svg xmlns="http://www.w3.org/2000/svg" xmlns:xlink="http://www.w3.org/1999/xlink" id="icon-search" viewBox="0 0 22 22"><path d="M8.556 14.667a6.118 6.118 0 0 1-6.112-6.111 6.118 6.118 0 0 1 6.112-6.112 6.118 6.118 0 0 1 6.11 6.112 6.118 6.118 0 0 1-6.11 6.11m12.963 4.26l-3.457-3.456c-.32-.32-.77-.42-1.176-.313l-1.488-1.487a8.503 8.503 0 0 0 1.713-5.114C17.111 3.838 13.273 0 8.556 0 3.838 0 0 3.838 0 8.556c0 4.717 3.838 8.555 8.556 8.555a8.499 8.499 0 0 0 5.114-1.713l1.487 1.488a1.217 1.217 0 0 0-.045.312c0 .324.128.635.357.864l3.458 3.457a1.218 1.218 0 0 0 1.728 0l.864-.864a1.223 1.223 0 0 0 0-1.728" fill="#ECEFF1" fill-rule="evenodd" /></svg>
