<?xml version="1.0" encoding="utf-8"?>
<!-- Generator: Adobe Illustrator 22.0.1, SVG Export Plug-In . SVG Version: 6.00 Build 0)  -->
<svg version="1.1" id="Camada_1" xmlns="http://www.w3.org/2000/svg" xmlns:xlink="http://www.w3.org/1999/xlink" x="0px" y="0px"
	 viewBox="0 0 256 256" style="enable-background:new 0 0 256 256;" xml:space="preserve">
<style type="text/css">
	.st0{fill:#4D4E53;}
</style>
<title>Ativo 2</title>
<g id="Camada_2_1_">
	<g id="Stroke">
		<g>
			<path class="st0" d="M717.1-24.1c3.2,0,5.8,2.6,5.8,5.8v52.5c0,3.2-2.6,5.8-5.8,5.8 M714.5,31.1v-46.3"/>
		</g>
	</g>
</g>
<g>
	<g>
		<path class="st0" d="M62,71.9H19.3c-3.2,0-5.8-2.6-5.8-5.8V22.8c0-3.2,2.6-5.8,5.8-5.8H62c3.2,0,5.8,2.6,5.8,5.8v43.3
			C67.8,69.3,65.2,71.9,62,71.9z M23.2,62.3h35V26.6h-35V62.3z"/>
	</g>
	<g>
		<path class="st0" d="M243.4,71.9H88.7c-3.2,0-5.8-2.6-5.8-5.8V22.8c0-3.2,2.6-5.8,5.8-5.8h154.7c3.2,0,5.8,2.6,5.8,5.8v43.3
			C249.2,69.3,246.6,71.9,243.4,71.9z M92.5,62.3h147.1V26.6H92.5V62.3z"/>
	</g>
</g>
<g>
	<g>
		<path class="st0" d="M62,138.5H19.3c-3.2,0-5.8-2.6-5.8-5.8V89.4c0-3.2,2.6-5.8,5.8-5.8H62c3.2,0,5.8,2.6,5.8,5.8v43.3
			C67.8,135.9,65.2,138.5,62,138.5z M23.2,128.9h35V93.2h-35V128.9z"/>
	</g>
	<g>
		<path class="st0" d="M243.4,138.5H88.7c-3.2,0-5.8-2.6-5.8-5.8V89.4c0-3.2,2.6-5.8,5.8-5.8h154.7c3.2,0,5.8,2.6,5.8,5.8v43.3
			C249.2,135.9,246.6,138.5,243.4,138.5z M92.5,128.9h147.1V93.2H92.5V128.9z"/>
	</g>
</g>
<g>
	<g>
		<path class="st0" d="M62,205.1H19.3c-3.2,0-5.8-2.6-5.8-5.8V156c0-3.2,2.6-5.8,5.8-5.8H62c3.2,0,5.8,2.6,5.8,5.8v43.3
			C67.8,202.5,65.2,205.1,62,205.1z M23.2,195.4h35v-35.6h-35V195.4z"/>
	</g>
	<g>
		<path class="st0" d="M243.4,205.1H88.7c-3.2,0-5.8-2.6-5.8-5.8V156c0-3.2,2.6-5.8,5.8-5.8h154.7c3.2,0,5.8,2.6,5.8,5.8v43.3
			C249.2,202.5,246.6,205.1,243.4,205.1z M92.5,195.4h147.1v-35.6H92.5V195.4z"/>
	</g>
</g>
</svg>
