<?xml version="1.0" encoding="utf-8"?>
<!-- Generator: Adobe Illustrator 16.0.4, SVG Export Plug-In . SVG Version: 6.00 Build 0)  -->
<!DOCTYPE svg PUBLIC "-//W3C//DTD SVG 1.1//EN" "http://www.w3.org/Graphics/SVG/1.1/DTD/svg11.dtd">
<svg version="1.1" xmlns="http://www.w3.org/2000/svg" xmlns:xlink="http://www.w3.org/1999/xlink" x="0px" y="0px"
	 width="1622.6px" height="497.5px" viewBox="0 0 1622.6 497.5" style="enable-background:new 0 0 1622.6 497.5;"
	 xml:space="preserve">
<style type="text/css">
<![CDATA[
	.st0{fill:#FFFFFF;}
	.st1{fill:#CC092F;}
	.st2{fill:#CF0A2C;}
]]>
</style>
<g id="Layer_1">
</g>
<g id="PROPORÇ_x2DC_AO_E_REGRAS">
	<g>
		<g>
			<path d="M374.3,333.5c-6.6,0-11.4,1.2-16,3v-32.7c-3.2,1.2-6.5,3.1-9,5.1c-1.5,1.2-2.2,2.6-2.2,4.8v84.6c5,1.7,13.7,3,21.4,3
				c21.5,0,34.2-13.9,34.2-35.5C402.7,344.7,390.8,333.5,374.3,333.5z M368.9,392.3c-3.8,0-7.9-0.3-10.6-1.1v-45.9
				c4.7-2,8.7-2.8,14.1-2.8c11,0,19,7.9,19,23.1C391.4,383.2,382.7,392.3,368.9,392.3z M441,363.5l-6.5-3c-6.5-3-10-4.8-10-9.8
				c0-6.2,6.1-8.2,12.8-8.2c5.8,0,10.6,1.1,15.7,2.8c0.3-1.5,0.4-3.1,0.4-4.6c0-1.3-0.1-2.8-0.4-4c-3.8-1.9-10.6-3.2-17.2-3.2
				c-12.1,0-22.3,6.9-22.3,17c0,8.6,3.6,13.6,15.5,18.7l5,2.2c7.7,3.4,10.6,6.2,10.6,11.4c0,7.1-6.7,9.6-13.2,9.6
				c-6.9,0-12.9-1.3-19-3.8c-0.4,1.3-0.5,2.8-0.5,4.4c0,1.5,0.1,3,0.5,4.4c5.1,2.6,11.7,3.9,20.4,3.9c12.7,0,22.9-7.1,22.9-18.4
				C455.8,373.6,451.1,368.1,441,363.5z M475.8,223.5c0-18.4,9.6-28.3,22.6-28.3c2.3,0,6.3,0,8.6,0.4c1.5-6.1,1.7-14.9,0.4-20.9
				c-1.5-0.4-5.2-0.8-7.3-0.8c-12.4,0-19.5,4.8-26.2,13.4c-0.6-4.4-1.5-8-2.9-12.4c-2.5-0.8-6.9-1-10.7-1c-3.6,0-8.2,0.4-10.5,1
				v94.9c3.1,0.8,8.4,1,13,1c4.4,0,10.3-0.4,13-1V223.5z M1464.3,333.5c-17.9,0-29.1,12.5-29.1,34c0,21.3,11,33.9,28.9,33.9
				c18.2,0,29.2-12.8,29.2-33.9C1493.3,345.9,1482.7,333.5,1464.3,333.5z M1464.1,392.5c-11.6,0-17.6-8.9-17.6-24.9
				c0-16.3,6.3-25,17.8-25c11.7,0,17.8,8.5,17.8,25C1482,383.8,1475.8,392.5,1464.1,392.5z M1425.6,343.6c0.3-1.5,0.4-3.1,0.4-4.6
				c0-1.6-0.1-3.1-0.4-4.4h-22.5V316c-3.2,1.2-6.6,3-9,5.1c-1.3,1.2-2.1,2.6-2.1,4.7v49.5c0,18.3,10.5,26,23.1,26
				c4.2,0,8.1-0.5,10.5-1.3c0.3-1.3,0.4-2.8,0.4-4.3c0-1.3-0.1-2.8-0.4-4.3c-3,0.7-5.5,0.9-9.4,0.9c-7.5,0-13.1-5.8-13.1-16.7v-32
				H1425.6z M491.9,333.5c-8.6,0-17.6,2-23.7,4v93.5c3.1-1.2,6.6-2.8,9-5.1c1.3-1.2,2.1-2.7,2.1-4.8V400c3.6,0.8,7.7,1.2,11.8,1.2
				c19.4,0,32.6-13.5,32.6-34.9C523.7,344.8,511,333.5,491.9,333.5z M490.8,392.2c-4.6,0-8.6-0.5-11.4-1.3v-46.6
				c4.4-1.2,8.6-1.7,12.1-1.7c13.5,0,21,8.7,21,23.8C512.4,383.6,503.6,392.2,490.8,392.2z M754.5,271.8c10.7,0,22.2-1.9,29.5-5.4
				c1.5-6.1,1.5-14,0-20.1c-9.6,2.7-17.8,4.4-26.8,4.4c-14.5,0-24.5-5.4-26.6-20.7h59.1c0.8-2.3,1-10.1,1-13.2
				c0-28.3-15.9-44.2-40.4-44.2c-28.1,0-45.3,18.9-45.3,50.3C705,254.2,723.2,271.8,754.5,271.8z M749.8,192.4
				c11.7,0,16.3,8,16.8,18.4h-36C732.5,199.4,739.4,192.4,749.8,192.4z M172.1,220.3v48.3c0,1.2,1,2.2,2.2,2.2h13V209l-12.9,7.5
				C172.9,217.2,172.1,218.5,172.1,220.3z M588.7,211.9c0-26-14-38.8-40.6-39.4c-10.3-0.2-19.3,1-28.1,3.1c-1.7,5.9-1.5,14.5,0,20.5
				c10.9-2.5,17-2.7,23.9-2.7c13.4,0,19.9,5.4,19.9,16.5v1c-4-0.4-8.8-0.8-12.2-0.8c-22.2,0-41.3,8-41.3,29.3
				c0,24.1,17.2,32.3,42.1,32.3c11.7,0,24.5-2.1,36.2-5.7V211.9z M563.8,250.5c-1.5,0.4-8,1-11.1,1c-11.9,0-18.4-3.6-18.4-11.9
				c0-8.4,6.5-11.7,18.4-11.7c4,0,8.6,0.4,11.1,0.6V250.5z M433.9,221.1c0-29.7-13.8-48.2-42.3-48.2c-7.5,0-14.9,1.7-19.5,4v-46.5
				c-7.3,2.7-15.1,6.5-21.6,11.7c-3.4,2.7-4.4,5.4-4.4,9.4v114.8c6.9,2.9,21,5.4,34.4,5.4C414.4,271.8,433.9,251.1,433.9,221.1z
				 M372.1,197.5c3.6-1.9,8.6-2.9,15.1-2.9c13,0,19.9,9,19.9,26c0,17.8-8.2,30.2-25.1,30.2c-2.7,0-6.9,0-9.8-1V197.5z M929,271.8
				c10.7,0,20.5-1.9,28.5-6.3c-3.6-4.6-7.5-10.9-9.8-18.2c-7.3,2.9-10.5,3.1-16.5,3.1c-13,0-21.6-10.3-21.6-28.3
				c0-17.2,6.9-28.3,21.8-28.3c6.3,0,10.7,1,16.5,3.4c1.7-5.9,4.8-12.6,9.2-18.2c-8.2-4.2-16.1-6.5-29.1-6.5
				c-28.7,0-45.2,20.3-45.2,49.7C882.7,252.6,899.6,271.8,929,271.8z M1531.6,363.5l-6.5-3c-6.4-3-10-4.8-10-9.8
				c0-6.2,6.1-8.2,12.8-8.2c5.8,0,10.6,1.1,15.7,2.8c0.3-1.5,0.4-3.1,0.4-4.6c0-1.3-0.1-2.8-0.4-4c-3.8-1.9-10.6-3.2-17.2-3.2
				c-12.1,0-22.3,6.9-22.3,17c0,8.6,3.6,13.6,15.5,18.7l5,2.2c7.7,3.4,10.6,6.2,10.6,11.4c0,7.1-6.7,9.6-13.2,9.6
				c-6.9,0-12.9-1.3-19-3.8c-0.4,1.3-0.5,2.8-0.5,4.4c0,1.5,0.1,3,0.5,4.4c5.1,2.6,11.7,3.9,20.4,3.9c12.7,0,22.9-7.1,22.9-18.4
				C1546.4,373.6,1541.7,368.1,1531.6,363.5z M211.5,195.1l-18.9,10.9v64.9h20.2c1.9,0,3.4-1.5,3.4-3.4v-69.9
				C216.2,194.8,213.6,193.8,211.5,195.1z M185.7,101.4c-13.2,0-27.5,1.2-41.8,3.6c14.4-18.5,37.2-30.4,62.6-30.4
				c18.8,0,37.5,7.1,50.2,17.6c2.3,1.9,4,2.1,5.8,0.3c1.8-1.7,1.6-3.5-0.3-5.7c-16.5-19.2-40.7-32.1-69.3-31.6
				c-37.4,0.7-69.1,24.3-81.2,57.1c-11.1,3.5-21.2,7.6-30.2,12.6c-2.5,1.4-3.3,3.1-2.5,5.2c0.9,1.9,2.6,2.6,5.1,1.9
				c7.7-2.2,15.6-4.1,23.9-5.9c-0.9,4.3-1.4,8.8-1.4,13.5c-0.7,30.2,15.4,58.9,40.4,74.6c2.5,1.6,4.6,1.6,6-0.3
				c1.4-1.9,1.2-3.6-0.9-5.5c-15.8-14.2-24.6-35.2-24.6-56.1c0-10.5,2.1-20.7,6.1-29.9c8.2-0.7,17.2-1.2,27-1.2
				c63.9,0,117.7,21.1,117.7,48.7c0,14-17.7,28-38.8,37.3c-5.1,2.2-5.6,3.8-4.9,6c0.7,2.1,3,2.8,5.6,1.9
				c36.9-12.1,64.7-31.9,64.7-55.9C305,126.6,252.4,101.4,185.7,101.4z M694,333.5c-7.7,0-15.6,2-22.3,5.2
				c-4.7-3.5-10.8-5.2-18.2-5.2c-8.9,0-17.4,1.6-25.2,3.9v63c1.5,0.3,3.4,0.5,5.4,0.5c2,0,4.3-0.3,5.8-0.5v-56.1
				c3.8-1.1,7.7-1.7,13.3-1.7c12.2,0,17.8,6.6,17.8,21.3v36.6c1.5,0.3,3.4,0.5,5.4,0.5c2,0,4.3-0.3,5.8-0.5v-36.7
				c0-7.3-1.3-13.2-4-17.9c5.1-2.2,10.4-3.2,15.6-3.2c12.4,0,18.7,6.5,18.7,21.5v36.3c1.5,0.3,3.4,0.5,5.4,0.5s4.3-0.3,5.8-0.5
				v-36.7C723.2,343.7,711.9,333.5,694,333.5z M1119.8,334.6v65.8c1.5,0.3,3.4,0.5,5.4,0.5c2,0,4.3-0.3,5.8-0.5v-65.8
				c-1.5-0.3-3.4-0.5-5.4-0.5C1123.6,334,1121.3,334.3,1119.8,334.6z M835.2,334c-7.1,0-13.2,3.4-17.8,9.7c-0.1-3.1-0.5-6.3-1.1-9.1
				c-1.3-0.4-3.2-0.5-4.7-0.5c-1.7,0-3.5,0.3-4.8,0.5v65.8c1.5,0.3,3.4,0.5,5.4,0.5c2,0,4.3-0.3,5.8-0.5v-37.1c0-12,7.5-20,17.1-20
				c1.7,0,3.8,0,5.1,0.4c0.4-1.6,0.5-3.4,0.5-4.8c0-1.4-0.1-2.8-0.4-4.2C838.7,334.3,837,334,835.2,334z M1125.6,311.4
				c-2.2,0-4.4,0-6.1,0.4c-0.1,1.6-0.3,3.8-0.3,5.5c0,1.7,0.1,3.9,0.3,5.6c1.5,0.3,3.6,0.4,5.8,0.4c2.2,0,4.6-0.1,6.1-0.4
				c0.1-1.7,0.3-3.9,0.3-5.6c0-1.8-0.1-3.9-0.3-5.5C1129.9,311.4,1127.7,311.4,1125.6,311.4z M877,333.5
				c-17.6,0-28.8,13.7-28.8,34.2c0,20.7,11.6,33.6,31.5,33.6c7.3,0,14.7-1.5,19.2-3.5c0.3-1.3,0.4-2.8,0.4-4.3c0-1.5-0.1-3-0.4-4.3
				c-5.8,1.9-11.7,3.2-18.4,3.2c-13.5,0-20.9-8.6-21.5-22.6h43.5c0.3-1.6,0.4-5.4,0.4-7.3C902.8,344.7,892.3,333.5,877,333.5z
				 M859.1,361.5c0.9-12.1,8.3-19.4,17.8-19.4c10,0,15.5,8.1,15.5,19.4H859.1z M1049.4,222.4c0-30.2-16.3-49.9-45.7-49.9
				c-29.1,0-45.5,19.9-45.5,49.9c0,30.4,17.2,49.4,45.5,49.4C1033.1,271.8,1049.4,252.4,1049.4,222.4z M984.9,222.4
				c0-16.3,4.4-28.9,18.9-28.9c14.9,0,19.1,12.2,19.1,28.9c0,17.6-4.8,28.5-19.1,28.5C989.3,250.9,984.9,239.2,984.9,222.4z
				 M941.8,333.5c-17.6,0-28.8,13.7-28.8,34.2c0,20.7,11.6,33.6,31.5,33.6c7.3,0,14.7-1.5,19.2-3.5c0.3-1.3,0.4-2.8,0.4-4.3
				c0-1.5-0.1-3-0.4-4.3c-5.8,1.9-11.7,3.2-18.4,3.2c-13.5,0-20.9-8.6-21.5-22.6h43.5c0.3-1.6,0.4-5.4,0.4-7.3
				C967.7,344.7,957.2,333.5,941.8,333.5z M923.9,361.5c0.9-12.1,8.3-19.4,17.8-19.4c10,0,15.5,8.1,15.5,19.4H923.9z M1347.1,333.5
				c-9,0-18,1.6-25.8,3.8v63.1c1.5,0.3,3.4,0.5,5.4,0.5s4.3-0.3,5.8-0.5v-56.2c3.8-0.9,8.3-1.6,14-1.6c12.6,0,19.4,6.9,19.4,21.5
				v36.3c1.5,0.3,3.4,0.5,5.4,0.5c2,0,4.3-0.3,5.8-0.5v-36.7C1377,343.7,1366.3,333.5,1347.1,333.5z M1093,313.7v21.1
				c-3.8-0.9-7.8-1.3-12-1.3c-19.5,0-32.4,13.5-32.4,35c0,21.5,12.7,33,31.8,33c9,0,17.9-2,23.8-4v-93.7c-3.1,1.2-6.6,3-9.1,5.1
				C1093.7,310.1,1093,311.4,1093,313.7z M1093,390.7c-4.4,1.2-8.6,1.8-12.2,1.8c-13.3,0-20.8-8.9-20.8-24c0-17.4,8.6-26,21.7-26
				c4.6,0,8.5,0.5,11.4,1.3V390.7z M1282.7,333.5c-17.6,0-28.8,13.7-28.8,34.2c0,20.7,11.6,33.6,31.5,33.6c7.3,0,14.7-1.5,19.2-3.5
				c0.3-1.3,0.4-2.8,0.4-4.3c0-1.5-0.1-3-0.4-4.3c-5.8,1.9-11.7,3.2-18.4,3.2c-13.5,0-20.9-8.6-21.5-22.6h43.5
				c0.3-1.6,0.4-5.4,0.4-7.3C1308.5,344.7,1298,333.5,1282.7,333.5z M1264.8,361.5c0.9-12.1,8.3-19.4,17.8-19.4
				c10,0,15.5,8.1,15.5,19.4H1264.8z M690.4,266V130.4c-7.3,2.7-15.1,6.5-21.6,11.7c-3.4,2.7-4.4,5.4-4.4,9.4v22.8
				c-4.6-1.3-9.4-1.5-13.6-1.5c-28.7,0-48.2,19.3-48.2,50.1c0,31.4,19.1,48.8,48.8,48.8C665,271.8,678.4,270,690.4,266z M629.4,223
				c0-18.2,6.7-29.3,23.7-29.3c5,0,8.2,0.6,11.3,1.5v54.1c-4.4,1.3-7.5,1.5-11.1,1.5C636.1,250.7,629.4,239.4,629.4,223z
				 M589.7,333.5c-17.6,0-28.8,13.7-28.8,34.2c0,20.7,11.6,33.6,31.5,33.6c7.3,0,14.7-1.5,19.2-3.5c0.3-1.3,0.4-2.8,0.4-4.3
				c0-1.5-0.1-3-0.4-4.3c-5.8,1.9-11.7,3.2-18.4,3.2c-13.5,0-20.9-8.6-21.5-22.6h43.5c0.3-1.6,0.4-5.4,0.4-7.3
				C615.5,344.7,605.1,333.5,589.7,333.5z M571.8,361.5c0.9-12.1,8.3-19.4,17.8-19.4c10,0,15.5,8.1,15.5,19.4H571.8z M1212.3,333.5
				c-7.7,0-15.6,2-22.3,5.2c-4.7-3.5-10.8-5.2-18.2-5.2c-8.9,0-17.4,1.6-25.2,3.9v63c1.5,0.3,3.4,0.5,5.4,0.5c2,0,4.3-0.3,5.8-0.5
				v-56.1c3.8-1.1,7.7-1.7,13.3-1.7c12.2,0,17.8,6.6,17.8,21.3v36.6c1.5,0.3,3.4,0.5,5.4,0.5c2,0,4.3-0.3,5.8-0.5v-36.7
				c0-7.3-1.3-13.2-4-17.9c5.1-2.2,10.4-3.2,15.6-3.2c12.4,0,18.7,6.5,18.7,21.5v36.3c1.5,0.3,3.4,0.5,5.4,0.5c2,0,4.3-0.3,5.8-0.5
				v-36.7C1241.5,343.7,1230.2,333.5,1212.3,333.5z M761.9,333.5c-8.6,0-17.6,2-23.7,4v93.5c3.1-1.2,6.6-2.8,9-5.1
				c1.3-1.2,2.2-2.7,2.2-4.8V400c3.6,0.8,7.7,1.2,11.8,1.2c19.4,0,32.6-13.5,32.6-34.9C793.8,344.8,781,333.5,761.9,333.5z
				 M760.8,392.2c-4.6,0-8.6-0.5-11.4-1.3v-46.6c4.4-1.2,8.6-1.7,12.1-1.7c13.5,0,21,8.7,21,23.8
				C782.5,383.6,773.6,392.2,760.8,392.2z M871.8,242.5c0-15.5-6.7-22.8-21.6-29.1l-10.5-4.4c-6.1-2.5-9.6-4.6-9.6-8.6
				c0-6.1,5.4-7.3,12.6-7.3c7.1,0,14.5,0.8,24.5,4c1.3-6.9,1.3-13.4,0-19.5c-6.3-3.4-18-5-28.3-5c-20.1,0-35.4,10.9-35.4,27.2
				c0,14.7,6.3,22,23.9,29.1l8.2,3.3c7.8,3.1,10.1,5,10.1,10.1c0,7.5-7.5,8.8-13.8,8.8c-10.5,0-18.4-2.1-28.5-5.7
				c-1.7,6.1-1.7,14,0,20.3c8.6,4.6,20.3,6.1,32.7,6.1C855.8,271.8,871.8,261.4,871.8,242.5z M1006.3,333.5c-9,0-18,1.6-25.8,3.8
				v63.1c1.5,0.3,3.4,0.5,5.4,0.5c2,0,4.3-0.3,5.8-0.5v-56.2c3.8-0.9,8.3-1.6,14-1.6c12.7,0,19.4,6.9,19.4,21.5v36.3
				c1.5,0.3,3.4,0.5,5.4,0.5c2,0,4.3-0.3,5.8-0.5v-36.7C1036.2,343.7,1025.4,333.5,1006.3,333.5z"/>
		</g>
	</g>
</g>
</svg>
