<?xml version="1.0" encoding="utf-8"?>
<!-- Generator: Adobe Illustrator 21.0.0, SVG Export Plug-In . SVG Version: 6.00 Build 0)  -->
<svg version="1.1" xmlns="http://www.w3.org/2000/svg" xmlns:xlink="http://www.w3.org/1999/xlink" x="0px" y="0px"
	 viewBox="0 0 1123.2 497.5" style="enable-background:new 0 0 1123.2 497.5;" xml:space="preserve">
<style type="text/css">
	.st0{fill:#CF0A2C;}
	.st1{fill:#CC092F;}
	.st2{fill:#FFFFFF;}
</style>
<g id="Layer_1">
</g>
<g id="PROPORÇ_x2DC_AO_E_REGRAS">
	<path class="st2" d="M439.6,246.4c0-29.7-13.8-48.2-42.3-48.2c-7.5,0-14.9,1.7-19.5,4v-46.5c-7.3,2.7-15.1,6.5-21.6,11.7
		c-3.4,2.7-4.4,5.4-4.4,9.4v114.8c6.9,2.9,20.9,5.4,34.4,5.4C420.1,297.1,439.6,276.3,439.6,246.4z M377.8,222.7
		c3.6-1.9,8.6-2.9,15.1-2.9c13,0,19.9,9,19.9,26c0,17.8-8.2,30.2-25.1,30.2c-2.7,0-6.9,0-9.8-1V222.7z M177.7,245.5v48.3
		c0,1.2,1,2.2,2.2,2.2h13v-61.8l-12.9,7.5C178.6,242.5,177.7,243.7,177.7,245.5z M191.4,126.7c-13.2,0-27.5,1.2-41.8,3.6
		c14.4-18.5,37.2-30.4,62.6-30.4c18.8,0,37.5,7.1,50.2,17.6c2.3,1.9,4,2.1,5.8,0.3c1.8-1.7,1.6-3.5-0.3-5.7
		C251.4,93,227.2,80,198.6,80.6c-37.4,0.7-69.1,24.3-81.2,57.1c-11.1,3.5-21.2,7.6-30.2,12.6c-2.5,1.4-3.3,3.1-2.5,5.2
		c0.9,1.9,2.6,2.6,5.1,1.9c7.7-2.2,15.6-4.1,23.9-5.9c-0.9,4.3-1.4,8.8-1.4,13.5c-0.7,30.2,15.4,58.9,40.4,74.6
		c2.5,1.6,4.6,1.6,6-0.3c1.4-1.9,1.2-3.6-0.9-5.5c-15.8-14.2-24.6-35.2-24.6-56.1c0-10.5,2.1-20.7,6.1-29.9c8.2-0.7,17.2-1.2,27-1.2
		c63.9,0,117.7,21.1,117.7,48.7c0,14-17.7,28-38.8,37.3c-5.1,2.2-5.6,3.8-4.9,6c0.7,2.1,3,2.8,5.6,1.9
		c36.8-12.1,64.7-31.9,64.7-55.9C310.7,151.9,258,126.7,191.4,126.7z M504.1,220.4c2.3,0,6.3,0,8.6,0.4c1.5-6.1,1.7-14.9,0.4-20.9
		c-1.5-0.4-5.2-0.8-7.3-0.8c-12.4,0-19.5,4.8-26.2,13.4c-0.6-4.4-1.5-8-2.9-12.4c-2.5-0.8-6.9-1-10.7-1c-3.6,0-8.2,0.4-10.5,1V295
		c3.1,0.8,8.4,1,13,1c4.4,0,10.3-0.4,13-1v-46.3C481.5,230.2,491.1,220.4,504.1,220.4z M217.2,220.3l-18.9,10.9V296h20.2
		c1.9,0,3.4-1.5,3.4-3.4v-69.9C221.9,220,219.3,219.1,217.2,220.3z M936.7,275.7c-13,0-21.6-10.3-21.6-28.3
		c0-17.2,6.9-28.3,21.8-28.3c6.3,0,10.7,1,16.5,3.4c1.7-5.9,4.8-12.6,9.2-18.2c-8.2-4.2-16.1-6.5-29.1-6.5
		c-28.7,0-45.2,20.3-45.2,49.6c0,30.4,17,49.6,46.3,49.6c10.7,0,20.5-1.9,28.5-6.3c-3.6-4.6-7.5-10.9-9.8-18.2
		C945.9,275.5,942.8,275.7,936.7,275.7z M755.9,197.8c-28.1,0-45.2,18.9-45.2,50.3c0,31.4,18.2,49,49.4,49c10.7,0,22.2-1.9,29.5-5.4
		c1.5-6.1,1.5-14,0-20.1c-9.6,2.7-17.8,4.4-26.8,4.4c-14.5,0-24.5-5.4-26.6-20.7h59.1c0.8-2.3,1-10.1,1-13.2
		C796.4,213.7,780.4,197.8,755.9,197.8z M736.2,236.1c1.9-11.5,8.8-18.4,19.3-18.4c11.7,0,16.3,8,16.8,18.4H736.2z M855.9,238.6
		l-10.5-4.4c-6.1-2.5-9.6-4.6-9.6-8.6c0-6.1,5.4-7.3,12.6-7.3c7.1,0,14.5,0.8,24.5,4c1.3-6.9,1.3-13.4,0-19.5c-6.3-3.4-18-5-28.3-5
		c-20.1,0-35.4,10.9-35.4,27.2c0,14.7,6.3,22,23.9,29.1l8.2,3.4c7.8,3.1,10.1,5,10.1,10.1c0,7.5-7.5,8.8-13.8,8.8
		c-10.5,0-18.4-2.1-28.5-5.7c-1.7,6.1-1.7,14,0,20.3c8.6,4.6,20.3,6.1,32.7,6.1c19.9,0,35.8-10.5,35.8-29.3
		C877.4,252.2,870.7,244.9,855.9,238.6z M1009.4,197.8c-29.1,0-45.5,19.9-45.5,49.9c0,30.4,17.2,49.4,45.5,49.4
		c29.3,0,45.7-19.5,45.7-49.4C1055.1,217.5,1038.7,197.8,1009.4,197.8z M1009.4,276.1c-14.5,0-18.9-11.7-18.9-28.5
		c0-16.3,4.4-28.9,18.9-28.9c14.9,0,19.1,12.2,19.1,28.9C1028.5,265.2,1023.7,276.1,1009.4,276.1z M553.8,197.8
		c-10.3-0.2-19.3,1-28.1,3.1c-1.7,5.9-1.5,14.5,0,20.5c10.9-2.5,17-2.7,23.9-2.7c13.4,0,19.9,5.4,19.9,16.6v1
		c-4-0.4-8.8-0.8-12.1-0.8c-22.2,0-41.3,8-41.3,29.3c0,24.1,17.2,32.3,42.1,32.3c11.7,0,24.5-2.1,36.2-5.7v-54.3
		C594.4,211.2,580.4,198.4,553.8,197.8z M569.5,275.7c-1.5,0.4-8,1-11.1,1c-11.9,0-18.4-3.6-18.4-11.9c0-8.4,6.5-11.7,18.4-11.7
		c4,0,8.6,0.4,11.1,0.6V275.7z M670,176.8v22.8c-4.6-1.3-9.4-1.5-13.6-1.5c-28.7,0-48.2,19.3-48.2,50.1c0,31.4,19.1,48.8,48.8,48.8
		c13.6,0,27-1.9,39-5.9V155.7c-7.3,2.7-15.1,6.5-21.6,11.7C671.1,170.1,670,172.8,670,176.8z M670,274.4c-4.4,1.3-7.5,1.5-11.1,1.5
		c-17.2,0-23.9-11.3-23.9-27.7c0-18.2,6.7-29.3,23.7-29.3c5,0,8.2,0.6,11.3,1.5V274.4z M399.6,385.5v38.1
		c-7.4,2.2-15.7,3.4-23.5,3.4c-15.3,0-26.3-6.5-26.3-21.1c0-12.7,10.3-20.1,27.1-20.1c5.3,0,8.5,0.3,12.1,0.8V384
		c0-11.2-6.1-16.2-16.9-16.2c-5.8,0-11.2,0.7-17,2.3c-0.3-1.3-0.4-3-0.4-4.6c0-1.5,0.1-3,0.4-4.2c5-1.6,11.6-2.6,17.4-2.6
		C388.9,358.7,399.6,366.7,399.6,385.5z M389.1,416.8v-22.3c-3.2-0.5-6.6-0.7-11.3-0.7c-11.6,0-17.5,3.4-17.5,11.7
		c0,8.1,5.7,12.6,16.2,12.6C380.6,418.1,386.2,417.4,389.1,416.8z M414.4,396.7v-36.9c1.5-0.3,3.8-0.5,5.8-0.5s3.9,0.3,5.4,0.5v36.4
		c0,14.7,6.6,21.5,19.2,21.5c5.4,0,9.9-0.7,13.8-1.6v-56.3c1.5-0.3,3.6-0.5,5.7-0.5s4,0.3,5.5,0.5V423c-7.8,2.2-16.9,3.8-25.6,3.8
		C425,426.8,414.4,416.6,414.4,396.7z M519.2,416.8c0.3,1.5,0.4,3,0.4,4.3c0,1.5-0.1,3-0.4,4.3c-2.4,0.8-6.3,1.3-10.5,1.3
		c-12.7,0-23.2-7.7-23.2-26.1V351c0-2.2,0.8-3.5,2.2-4.7c2.4-2.2,5.8-3.9,9-5.1v18.6h22.5c0.3,1.3,0.4,2.8,0.4,4.5
		c0,1.5-0.1,3.1-0.4,4.6h-22.5V401c0,10.9,5.5,16.7,13.1,16.7C513.7,417.7,516.2,417.4,519.2,416.8z M525,392.9
		c0-21.6,11.2-34.2,29.2-34.2c18.5,0,29.2,12.4,29.2,34.2c0,21.2-11.1,34-29.3,34C536.1,426.9,525,414.2,525,392.9z M572,392.9
		c0-16.6-6.1-25.1-17.8-25.1c-11.5,0-17.8,8.8-17.8,25.1c0,16.1,6.1,25,17.7,25C565.8,417.8,572,409.2,572,392.9z M588.5,431.2
		l37.5-97.9h9.3l-37.8,97.9H588.5z M642.7,425.8v-66c1.4-0.3,3.1-0.5,4.9-0.5c1.5,0,3.4,0.1,4.7,0.5c0.5,2.8,0.9,6.1,1.1,9.2
		c4.6-6.3,10.7-9.7,17.8-9.7c1.8,0,3.5,0.3,5.1,0.5c0.3,1.3,0.4,2.8,0.4,4.2c0,1.5-0.1,3.2-0.5,4.9c-1.3-0.4-3.4-0.4-5.1-0.4
		c-9.6,0-17.1,8.1-17.1,20.1v37.3c-1.5,0.3-3.8,0.5-5.8,0.5S644.2,426.1,642.7,425.8z M734.5,395.2h-43.6c0.7,14,8.1,22.7,21.6,22.7
		c6.7,0,12.7-1.3,18.5-3.2c0.3,1.4,0.4,2.8,0.4,4.3s-0.1,3-0.4,4.3c-4.6,2-12,3.5-19.3,3.5c-20,0-31.6-13-31.6-33.7
		c0-20.5,11.2-34.3,28.9-34.3c15.4,0,25.9,11.2,25.9,29.2C734.9,389.8,734.8,393.6,734.5,395.2z M724.4,386.8
		c0-11.3-5.5-19.4-15.5-19.4c-9.4,0-16.9,7.3-17.8,19.4H724.4z"/>
</g>
</svg>
