<?xml version="1.0" encoding="utf-8"?>
<!-- Generator: Adobe Illustrator 16.0.4, SVG Export Plug-In . SVG Version: 6.00 Build 0)  -->
<!DOCTYPE svg PUBLIC "-//W3C//DTD SVG 1.1//EN" "http://www.w3.org/Graphics/SVG/1.1/DTD/svg11.dtd">
<svg version="1.1" xmlns="http://www.w3.org/2000/svg" xmlns:xlink="http://www.w3.org/1999/xlink" x="0px" y="0px"
	 width="1123.2px" height="497.5px" viewBox="0 0 1123.2 497.5" style="enable-background:new 0 0 1123.2 497.5;"
	 xml:space="preserve">
<style type="text/css">
<![CDATA[
	.st0{fill:#FFFFFF;}
	.st1{fill:#CC092F;}
	.st2{fill:#CF0A2C;}
]]>
</style>
<g id="Layer_1">
</g>
<g id="PROPORÇ_x2DC_AO_E_REGRAS">
	<path d="M386.6,334.6v21.1c-3.8-0.9-7.8-1.3-12-1.3c-19.5,0-32.4,13.5-32.4,35c0,21.5,12.7,33,31.8,33c9,0,17.9-2,23.8-4v-93.7
		c-3.1,1.2-6.6,3-9.2,5.1C387.2,331,386.6,332.3,386.6,334.6z M386.6,411.6c-4.4,1.2-8.6,1.8-12.2,1.8c-13.3,0-20.9-8.9-20.9-24
		c0-17.4,8.6-26,21.7-26c4.6,0,8.5,0.5,11.4,1.3V411.6z M496,216.1c2.3,0,6.3,0,8.6,0.4c1.5-6.1,1.7-14.9,0.4-20.9
		c-1.5-0.4-5.2-0.8-7.3-0.8c-12.4,0-19.5,4.8-26.2,13.4c-0.6-4.4-1.5-8-2.9-12.4c-2.5-0.8-6.9-1-10.7-1c-3.6,0-8.2,0.4-10.5,1v94.9
		c3.1,0.8,8.4,1,13,1c4.4,0,10.3-0.4,13-1v-46.3C473.4,225.9,483,216.1,496,216.1z M439.6,354.4c-17.6,0-28.8,13.7-28.8,34.2
		c0,20.7,11.6,33.6,31.5,33.6c7.3,0,14.7-1.5,19.2-3.5c0.3-1.4,0.4-2.8,0.4-4.3c0-1.5-0.1-3-0.4-4.3c-5.8,1.9-11.7,3.2-18.4,3.2
		c-13.5,0-20.9-8.6-21.5-22.6H465c0.3-1.6,0.4-5.4,0.4-7.3C465.4,365.6,454.9,354.4,439.6,354.4z M421.7,382.4
		c1-12.1,8.4-19.4,17.8-19.4c10,0,15.5,8.1,15.5,19.4H421.7z M183.3,122.3c-13.2,0-27.5,1.2-41.8,3.6c14.4-18.5,37.2-30.4,62.6-30.4
		c18.8,0,37.5,7.1,50.2,17.6c2.3,1.9,4,2.1,5.8,0.3c1.7-1.7,1.6-3.5-0.3-5.7c-16.5-19.2-40.7-32.1-69.3-31.6
		c-37.4,0.7-69.1,24.3-81.2,57.1C98.2,136.8,88,141,79,146c-2.5,1.4-3.3,3.1-2.5,5.2c0.9,1.9,2.6,2.6,5.1,1.9
		c7.7-2.2,15.6-4.1,23.9-5.9c-0.9,4.3-1.4,8.8-1.4,13.5c-0.7,30.2,15.4,58.9,40.4,74.6c2.5,1.6,4.6,1.6,6-0.3
		c1.4-1.9,1.2-3.6-0.9-5.5c-15.8-14.2-24.6-35.2-24.6-56.1c0-10.5,2.1-20.7,6.1-29.9c8.2-0.7,17.2-1.2,27-1.2
		c63.9,0,117.7,21.1,117.7,48.7c0,14-17.7,28-38.8,37.3c-5.1,2.2-5.6,3.8-4.9,6c0.7,2.1,3,2.8,5.6,1.9
		c36.8-12.1,64.7-31.9,64.7-55.9C302.6,147.5,249.9,122.3,183.3,122.3z M209,216l-18.9,10.9v64.9h20.2c1.9,0,3.4-1.5,3.4-3.4v-69.9
		C213.8,215.7,211.2,214.7,209,216z M169.6,241.2v48.3c0,1.2,1,2.2,2.2,2.2h13v-61.8l-12.9,7.5C170.5,238.1,169.6,239.4,169.6,241.2
		z M431.5,242c0-29.7-13.8-48.2-42.3-48.2c-7.5,0-14.9,1.7-19.5,4v-46.5c-7.3,2.7-15.1,6.5-21.6,11.7c-3.4,2.7-4.4,5.4-4.4,9.4
		v114.8c6.9,2.9,20.9,5.4,34.4,5.4C412,292.7,431.5,272,431.5,242z M369.7,218.4c3.6-1.9,8.6-2.9,15.1-2.9c13,0,19.9,9,19.9,26
		c0,17.8-8.2,30.2-25.1,30.2c-2.7,0-6.9,0-9.8-1V218.4z M614.4,354.4c-5.8,0-12.4,0.9-17.3,2.6c-0.3,1.2-0.4,2.7-0.4,4.2
		c0,1.6,0.1,3.2,0.4,4.6c5.8-1.6,11.2-2.3,16.9-2.3c10.8,0,16.8,5,16.8,16.1v2.6c-3.6-0.5-6.9-0.8-12.1-0.8c-16.8,0-27,7.4-27,20
		c0,14.5,11,21,26.2,21c7.8,0,16-1.2,23.4-3.4V381C641.4,362.3,630.7,354.4,614.4,354.4z M630.9,412.3c-2.8,0.7-8.5,1.3-12.7,1.3
		c-10.5,0-16.1-4.4-16.1-12.5c0-8.3,5.9-11.7,17.5-11.7c4.7,0,8.1,0.1,11.3,0.7V412.3z M928.6,271.4c-13,0-21.6-10.3-21.6-28.3
		c0-17.2,6.9-28.3,21.8-28.3c6.3,0,10.7,1,16.5,3.4c1.7-5.9,4.8-12.6,9.2-18.2c-8.2-4.2-16.1-6.5-29.1-6.5
		c-28.7,0-45.2,20.3-45.2,49.6c0,30.4,17,49.6,46.3,49.6c10.7,0,20.5-1.9,28.5-6.3c-3.6-4.6-7.5-10.9-9.8-18.2
		C937.8,271.2,934.7,271.4,928.6,271.4z M847.7,234.3l-10.5-4.4c-6.1-2.5-9.6-4.6-9.6-8.6c0-6.1,5.4-7.3,12.6-7.3
		c7.1,0,14.5,0.8,24.5,4c1.3-6.9,1.3-13.4,0-19.5c-6.3-3.4-18-5-28.3-5c-20.1,0-35.4,10.9-35.4,27.2c0,14.7,6.3,22,23.9,29.1
		l8.2,3.3c7.8,3.1,10.1,5,10.1,10.1c0,7.5-7.5,8.8-13.8,8.8c-10.5,0-18.4-2.1-28.5-5.7c-1.7,6.1-1.7,14,0,20.3
		c8.6,4.6,20.3,6.1,32.7,6.1c19.9,0,35.8-10.5,35.8-29.3C869.3,247.9,862.6,240.6,847.7,234.3z M1001.3,193.4
		c-29.1,0-45.5,19.9-45.5,49.9c0,30.4,17.2,49.4,45.5,49.4c29.3,0,45.7-19.5,45.7-49.4C1047,213.1,1030.6,193.4,1001.3,193.4z
		 M1001.3,271.8c-14.5,0-18.9-11.7-18.9-28.5c0-16.3,4.4-28.9,18.9-28.9c14.9,0,19.1,12.2,19.1,28.9
		C1020.4,260.9,1015.5,271.8,1001.3,271.8z M747.8,193.4c-28.1,0-45.2,18.9-45.2,50.3c0,31.4,18.2,49,49.4,49
		c10.7,0,22.2-1.9,29.5-5.4c1.5-6.1,1.5-14,0-20.1c-9.6,2.7-17.8,4.4-26.8,4.4c-14.5,0-24.5-5.4-26.6-20.7h59.1
		c0.8-2.3,1-10.1,1-13.2C788.2,209.4,772.3,193.4,747.8,193.4z M728.1,231.8c1.9-11.5,8.8-18.4,19.3-18.4c11.7,0,16.3,8,16.8,18.4
		H728.1z M545.7,193.4c-10.3-0.2-19.3,1-28.1,3.1c-1.7,5.9-1.5,14.5,0,20.5c10.9-2.5,17-2.7,23.9-2.7c13.4,0,19.9,5.4,19.9,16.5v1
		c-4-0.4-8.8-0.8-12.2-0.8c-22.2,0-41.3,8-41.3,29.3c0,24.1,17.2,32.3,42.1,32.3c11.7,0,24.5-2.1,36.2-5.7v-54.3
		C586.3,206.9,572.3,194.1,545.7,193.4z M561.4,271.4c-1.5,0.4-8,1-11.1,1c-11.9,0-18.4-3.6-18.4-11.9c0-8.4,6.5-11.7,18.4-11.7
		c4,0,8.6,0.4,11.1,0.6V271.4z M582.5,364.5c0.3-1.5,0.4-3.1,0.4-4.6c0-1.6-0.1-3.1-0.4-4.4h-22.5v-18.6c-3.2,1.2-6.6,3-9,5.1
		c-1.3,1.2-2.2,2.6-2.2,4.7v49.5c0,18.3,10.5,26,23.1,26c4.2,0,8.1-0.5,10.5-1.3c0.3-1.3,0.4-2.8,0.4-4.3c0-1.4-0.1-2.8-0.4-4.3
		c-3,0.7-5.5,0.9-9.4,0.9c-7.5,0-13.1-5.8-13.1-16.7v-32H582.5z M661.9,172.5v22.8c-4.6-1.3-9.4-1.5-13.6-1.5
		c-28.7,0-48.2,19.3-48.2,50.1c0,31.4,19.1,48.8,48.8,48.8c13.6,0,27-1.9,39-5.9V151.3c-7.3,2.7-15.1,6.5-21.6,11.7
		C663,165.8,661.9,168.5,661.9,172.5z M661.9,270.1c-4.4,1.3-7.5,1.5-11.1,1.5c-17.2,0-23.9-11.3-23.9-27.7
		c0-18.2,6.7-29.3,23.7-29.3c5,0,8.2,0.6,11.3,1.5V270.1z M504.1,354.4c-9,0-18,1.6-25.8,3.8v63.1c1.5,0.3,3.4,0.5,5.4,0.5
		c2,0,4.3-0.3,5.8-0.5V365c3.8-0.9,8.3-1.6,14-1.6c12.6,0,19.4,6.9,19.4,21.5v36.3c1.5,0.3,3.4,0.5,5.4,0.5c2,0,4.3-0.3,5.8-0.5
		v-36.7C533.9,364.6,523.2,354.4,504.1,354.4z M656.6,334.6v86.7c1.5,0.3,3.4,0.5,5.4,0.5c2,0,4.3-0.3,5.8-0.5v-96.6
		c-3.2,1.2-6.4,3.1-9,5.1C657.3,331,656.6,332.3,656.6,334.6z"/>
</g>
</svg>
