<?xml version="1.0" encoding="utf-8"?>
<!-- Generator: Adobe Illustrator 22.0.1, SVG Export Plug-In . SVG Version: 6.00 Build 0)  -->
<svg version="1.1" xmlns="http://www.w3.org/2000/svg" xmlns:xlink="http://www.w3.org/1999/xlink" x="0px" y="0px"
	 viewBox="0 0 928.1 984.4" style="enable-background:new 0 0 928.1 984.4;" xml:space="preserve">
<style type="text/css">
	.st0{fill:#CC092F;}
	.st1{fill:none;}
</style>
<g id="Layer_1">
</g>
<g id="PROPORÇ_x2DC_AO_E_REGRAS">
	<g>
		<g>
			<g>
				<path class="st0" d="M451.8,200c-24.2,0-50.7,2.2-76.9,6.7c26.5-34,68.5-55.9,115.3-55.9c34.6,0,69.1,13,92.4,32.4
					c4.2,3.5,7.4,3.8,10.7,0.6c3.2-3.2,2.9-6.4-0.6-10.5c-30.4-35.3-74.9-59.1-127.6-58.2c-68.8,1.3-127.3,44.8-149.5,105.2
					c-20.3,6.4-39.1,14-55.6,23.2c-4.5,2.5-6.1,5.7-4.5,9.5c1.6,3.5,4.8,4.8,9.4,3.5c14.2-4.1,28.7-7.6,43.9-10.8
					c-1.6,7.9-2.6,16.2-2.6,24.8c-1.3,55.6,28.4,108.4,74.3,137.3c4.5,2.9,8.4,2.9,11-0.6c2.6-3.5,2.3-6.7-1.6-10.2
					c-29.1-26.1-45.2-64.8-45.2-103.3c0-19.4,3.9-38.1,11.3-55c15.2-1.3,31.7-2.2,49.7-2.2c117.6,0,216.7,38.8,216.7,89.6
					c0,25.7-32.6,51.5-71.4,68.6c-9.4,4.1-10.3,7-9,11.1c1.3,3.8,5.5,5.1,10.3,3.5c67.8-22.2,119.2-58.8,119.2-103
					C671.5,246.4,574.6,200,451.8,200"/>
				<g>
					<path class="st0" d="M499.3,372.4l-34.8,20v119.4h37.2c3.5,0,6.3-2.8,6.3-6.3V376.9C508,371.9,503.2,370.1,499.3,372.4z"/>
					<path class="st0" d="M454.7,398l-23.8,13.7c-2.5,1.4-4.1,3.7-4.1,7v89c0,2.2,1.8,4,4,4h23.9V398z"/>
				</g>
			</g>
			<path class="st0" d="M319,691.8c-11.9,0-18.3-3.5-18.3-11.9s6.5-11.7,18.3-11.7c4,0,8.5,0.4,11,0.6v21.9
				C328.5,691.2,322.1,691.8,319,691.8 M149.3,691c-2.7,0-6.9,0-9.8-1v-51.8c3.5-1.9,8.5-2.9,15-2.9c12.9,0,19.8,9,19.8,25.8
				C174.3,678.7,166.1,691,149.3,691 M429.9,689.5c-4.4,1.2-7.5,1.5-11,1.5c-17.1,0-23.7-11.2-23.7-27.5c0-18.1,6.7-29.1,23.5-29.1
				c5,0,8.1,0.6,11.2,1.5V689.5z M767.2,691.2c-14.4,0-18.7-11.7-18.7-28.3c0-16.2,4.4-28.7,18.7-28.7c14.8,0,18.9,12.1,18.9,28.7
				C786.2,680.4,781.4,691.2,767.2,691.2 M495.7,651.4c1.9-11.5,8.7-18.3,19.2-18.3c11.7,0,16.2,7.9,16.7,18.3H495.7z M266.7,614.6
				c-12.3,0-19.4,4.8-26,13.3c-0.6-4.4-1.5-7.9-2.9-12.3c-2.5-0.8-6.9-1-10.6-1c-3.5,0-8.1,0.4-10.4,1v94.3c3.1,0.8,8.3,1,12.9,1
				c4.4,0,10.2-0.4,12.9-1v-46c0-18.3,9.6-28.1,22.5-28.1c2.3,0,6.2,0,8.5,0.4c1.5-6,1.7-14.8,0.4-20.8
				C272.5,615,268.8,614.6,266.7,614.6 M767.2,613.3c-28.9,0-45.2,19.8-45.2,49.6c0,30.2,17.1,49.1,45.2,49.1
				c29.1,0,45.4-19.4,45.4-49.1C812.6,632.9,796.4,613.3,767.2,613.3 M695,690.8c-12.9,0-21.4-10.2-21.4-28.1
				c0-17.1,6.9-28.1,21.7-28.1c6.2,0,10.6,1,16.4,3.3c1.7-5.8,4.8-12.5,9.2-18.1c-8.1-4.2-16-6.5-28.9-6.5c-28.5,0-45,20.2-45,49.3
				c0,30.2,16.9,49.3,46,49.3c10.6,0,20.4-1.9,28.3-6.2c-3.5-4.6-7.5-10.8-9.8-18.1C704.1,690.6,701,690.8,695,690.8 M614.6,653.9
				l-10.4-4.4c-6-2.5-9.6-4.6-9.6-8.5c0-6,5.4-7.3,12.5-7.3s14.4,0.8,24.4,4c1.2-6.9,1.2-13.3,0-19.4c-6.2-3.3-17.9-5-28.1-5
				c-20,0-35.2,10.8-35.2,27.1c0,14.6,6.2,21.9,23.7,28.9l8.1,3.3c7.7,3.1,10,5,10,10c0,7.5-7.5,8.7-13.7,8.7
				c-10.4,0-18.3-2.1-28.3-5.6c-1.7,6-1.7,13.9,0,20.2c8.5,4.6,20.2,6,32.5,6c19.8,0,35.6-10.4,35.6-29.1
				C636.1,667.5,629.4,660.2,614.6,653.9 M515.3,613.3c-27.9,0-45,18.7-45,50c0,31.2,18.1,48.7,49.1,48.7c10.6,0,22.1-1.9,29.4-5.4
				c1.5-6,1.5-13.9,0-20c-9.6,2.7-17.7,4.4-26.6,4.4c-14.4,0-24.4-5.4-26.4-20.6h58.7c0.8-2.3,1-10,1-13.1
				C555.5,629.2,539.7,613.3,515.3,613.3 M314.4,613.3c-10.2-0.2-19.2,1-27.9,3.1c-1.7,5.8-1.5,14.4,0,20.4
				c10.8-2.5,16.9-2.7,23.7-2.7c13.3,0,19.8,5.4,19.8,16.4v1c-4-0.4-8.7-0.8-12.1-0.8c-22.1,0-41,7.9-41,29.1
				c0,23.9,17.1,32.1,41.8,32.1c11.7,0,24.4-2.1,36-5.6v-53.9C354.8,626.7,340.8,614,314.4,613.3 M429.9,592.5v22.7
				c-4.6-1.2-9.4-1.5-13.5-1.5c-28.5,0-47.9,19.2-47.9,49.8c0,31.2,18.9,48.5,48.5,48.5c13.5,0,26.9-1.9,38.7-5.8V571.5
				c-7.3,2.7-15,6.5-21.4,11.7C431,585.8,429.9,588.6,429.9,592.5 M158.9,613.7c-7.5,0-14.8,1.7-19.4,4v-46.2
				c-7.3,2.7-15,6.5-21.4,11.7c-3.3,2.7-4.4,5.4-4.4,9.4v114.1c6.9,2.9,20.8,5.4,34.1,5.4c33.7,0,53.1-20.6,53.1-50.4
				C200.9,632.1,187.2,613.7,158.9,613.7"/>
			<g>
				<g>
					<path class="st0" d="M232.3,865.6c-0.5-1.7-0.6-3.5-0.6-5.2c0-1.9,0.2-3.6,0.6-5.2c7.1,2.8,14.1,4.4,22.1,4.4
						c7.5,0,15.4-2.8,15.4-11.1c0-6.1-3.5-9.4-12.4-13.3l-5.8-2.5c-13.8-6-18.1-11.8-18.1-21.8c0-11.8,11.9-19.8,26.1-19.8
						c7.7,0,15.7,1.6,20.1,3.8c0.3,1.4,0.5,3.1,0.5,4.7c0,1.7-0.2,3.6-0.5,5.3c-6-2-11.6-3.3-18.4-3.3c-7.8,0-14.9,2.4-14.9,9.6
						c0,5.8,4.1,8,11.6,11.5l7.5,3.5c11.8,5.3,17.3,11.8,17.3,22.6c0,13.2-11.9,21.5-26.7,21.5C245.9,870.2,238.3,868.6,232.3,865.6
						z"/>
					<path class="st0" d="M354.7,833.5h-50.7c0.8,16.3,9.4,26.4,25.1,26.4c7.8,0,14.8-1.6,21.5-3.8c0.3,1.6,0.5,3.3,0.5,5
						s-0.2,3.5-0.5,5c-5.3,2.4-14,4.1-22.4,4.1c-23.2,0-36.7-15.1-36.7-39.2c0-23.9,13-39.9,33.6-39.9c17.9,0,30.1,13,30.1,33.9
						C355.1,827.2,355,831.6,354.7,833.5z M342.9,823.7c0-13.2-6.4-22.6-18.1-22.6c-11,0-19.6,8.5-20.7,22.6H342.9z"/>
					<path class="st0" d="M370.1,897.7c-0.3-1.7-0.5-3.5-0.5-5.3c0-1.6,0.2-3.5,0.5-5.2c7.1,3.3,14.6,5,22.9,5
						c14.8,0,22.9-6.6,22.9-22.6v-5.8c-5.5,2.2-11,3.6-18.7,3.6c-19.2,0-32.7-13.8-32.7-36.3c0-23.1,14.1-40,39.6-40
						c9.4,0,18.8,2,24.8,4.4v72.7c0,22.3-12.7,34.5-34.5,34.5C385.3,902.7,377.3,901,370.1,897.7z M415.9,853.7v-50.5
						c-3.1-1.1-7.4-1.6-12.6-1.6c-16.2,0-25.6,11.5-25.6,29.8c0,15.5,8.5,25.6,21.7,25.6C405.5,857,410.4,855.9,415.9,853.7z"/>
					<path class="st0" d="M444.1,835.2l0-42.9c1.7-0.3,4.4-0.6,6.8-0.6c2.4,0,4.6,0.3,6.3,0.6v42.4c0,17.1,7.7,25,22.3,25
						c6.3,0,11.5-0.8,16-1.9v-65.5c1.7-0.3,4.2-0.6,6.6-0.6c2.4,0,4.7,0.3,6.4,0.6v73.5c-9.1,2.5-19.6,4.4-29.8,4.4
						C456.4,870.2,444.1,858.4,444.1,835.2z"/>
					<path class="st0" d="M524.2,869.1v-76.8c1.6-0.3,3.6-0.6,5.7-0.6c1.7,0,3.9,0.2,5.5,0.6c0.6,3.3,1.1,7.1,1.3,10.7
						c5.3-7.4,12.4-11.3,20.7-11.3c2,0,4.1,0.3,6,0.6c0.3,1.6,0.5,3.3,0.5,4.9c0,1.7-0.2,3.8-0.6,5.7c-1.6-0.5-3.9-0.5-6-0.5
						c-11.1,0-19.9,9.4-19.9,23.4v43.3c-1.7,0.3-4.4,0.6-6.8,0.6S526,869.4,524.2,869.1z"/>
					<path class="st0" d="M567.9,830.8c0-25.1,13-39.7,33.9-39.7c21.5,0,33.9,14.4,33.9,39.7c0,24.6-12.9,39.6-34.1,39.6
						C580.8,870.3,567.9,855.6,567.9,830.8z M622.5,830.8c0-19.3-7.1-29.2-20.7-29.2c-13.3,0-20.7,10.2-20.7,29.2
						c0,18.7,7.1,29,20.6,29C615.3,859.8,622.5,849.8,622.5,830.8z"/>
					<path class="st0" d="M643.3,865.6c-0.5-1.7-0.6-3.5-0.6-5.2c0-1.9,0.2-3.6,0.6-5.2c7.1,2.8,14.1,4.4,22.1,4.4
						c7.5,0,15.4-2.8,15.4-11.1c0-6.1-3.5-9.4-12.4-13.3l-5.8-2.5c-13.8-6-18.1-11.8-18.1-21.8c0-11.8,11.9-19.8,26.1-19.8
						c7.7,0,15.7,1.6,20.1,3.8c0.3,1.4,0.5,3.1,0.5,4.7c0,1.7-0.2,3.6-0.5,5.3c-6-2-11.6-3.3-18.4-3.3c-7.8,0-14.9,2.4-14.9,9.6
						c0,5.8,4.1,8,11.6,11.5l7.5,3.5c11.8,5.3,17.3,11.8,17.3,22.6c0,13.2-11.9,21.5-26.7,21.5C657,870.2,649.3,868.6,643.3,865.6z"
						/>
				</g>
			</g>
		</g>
		<rect x="0" y="0.1" class="st1" width="927.9" height="984.2"/>
	</g>
</g>
</svg>
