<?xml version="1.0" encoding="utf-8"?>
<!-- Generator: Adobe Illustrator 22.0.1, SVG Export Plug-In . SVG Version: 6.00 Build 0)  -->
<svg version="1.1" xmlns="http://www.w3.org/2000/svg" xmlns:xlink="http://www.w3.org/1999/xlink" x="0px" y="0px"
	 viewBox="0 0 1579.7 984.4" style="enable-background:new 0 0 1579.7 984.4;" xml:space="preserve">
<style type="text/css">
	.st0{fill:#FFFFFF;}
	.st1{fill:none;}
</style>
<g id="Layer_1">
</g>
<g id="PROPORÇ_x2DC_AO_E_REGRAS">
	<g>
		<g>
			<g>
				<path class="st0" d="M776.7,200c-24.2,0-50.7,2.2-76.9,6.7c26.5-34,68.5-55.9,115.3-55.9c34.6,0,69.1,13,92.4,32.4
					c4.2,3.5,7.4,3.8,10.7,0.6c3.2-3.2,2.9-6.4-0.6-10.5c-30.4-35.3-74.9-59.1-127.6-58.2c-68.8,1.3-127.3,44.8-149.5,105.2
					c-20.3,6.4-39.1,14-55.6,23.2c-4.5,2.5-6.1,5.7-4.5,9.5c1.6,3.5,4.8,4.8,9.4,3.5c14.2-4.1,28.7-7.6,43.9-10.8
					c-1.6,7.9-2.6,16.2-2.6,24.8c-1.3,55.6,28.4,108.4,74.3,137.3c4.5,2.9,8.4,2.9,11-0.6c2.6-3.5,2.3-6.7-1.6-10.2
					c-29.1-26.1-45.2-64.8-45.2-103.3c0-19.4,3.9-38.1,11.3-55c15.2-1.3,31.7-2.2,49.7-2.2c117.6,0,216.7,38.8,216.7,89.6
					c0,25.7-32.6,51.5-71.4,68.6c-9.4,4.1-10.3,7-9,11.1c1.3,3.8,5.5,5.1,10.3,3.5c67.8-22.2,119.2-58.8,119.2-103
					C996.3,246.4,899.4,200,776.7,200"/>
				<g>
					<path class="st0" d="M824.1,372.3l-34.8,20v119.4h37.2c3.5,0,6.3-2.8,6.3-6.3V376.8C832.8,371.9,828,370.1,824.1,372.3z"/>
					<path class="st0" d="M779.5,398l-23.8,13.7c-2.5,1.4-4.1,3.7-4.1,7v89c0,2.2,1.8,4,4,4h23.9V398z"/>
				</g>
			</g>
			<path class="st0" d="M643.8,691.8c-11.9,0-18.3-3.5-18.3-11.9s6.5-11.7,18.3-11.7c4,0,8.5,0.4,11,0.6v21.9
				C653.4,691.2,646.9,691.8,643.8,691.8 M474.1,691c-2.7,0-6.9,0-9.8-1v-51.8c3.5-1.9,8.5-2.9,15-2.9c12.9,0,19.8,9,19.8,25.8
				C499.1,678.7,491,691,474.1,691 M754.8,689.5c-4.4,1.2-7.5,1.5-11,1.5c-17.1,0-23.7-11.2-23.7-27.5c0-18.1,6.7-29.1,23.5-29.1
				c5,0,8.1,0.6,11.2,1.5V689.5z M1092.1,691.2c-14.4,0-18.7-11.7-18.7-28.3c0-16.2,4.4-28.7,18.7-28.7c14.8,0,18.9,12.1,18.9,28.7
				C1111,680.3,1106.2,691.2,1092.1,691.2 M820.6,651.4c1.9-11.5,8.7-18.3,19.2-18.3c11.7,0,16.2,7.9,16.7,18.3H820.6z M591.5,614.5
				c-12.3,0-19.4,4.8-26,13.3c-0.6-4.4-1.5-7.9-2.9-12.3c-2.5-0.8-6.9-1-10.6-1c-3.5,0-8.1,0.4-10.4,1v94.3c3.1,0.8,8.3,1,12.9,1
				c4.4,0,10.2-0.4,12.9-1v-46c0-18.3,9.6-28.1,22.5-28.1c2.3,0,6.2,0,8.5,0.4c1.5-6,1.7-14.8,0.4-20.8
				C597.4,615,593.6,614.5,591.5,614.5 M1092.1,613.3c-28.9,0-45.2,19.8-45.2,49.6c0,30.2,17.1,49.1,45.2,49.1
				c29.1,0,45.4-19.4,45.4-49.1C1137.4,632.9,1121.2,613.3,1092.1,613.3 M1019.8,690.8c-12.9,0-21.4-10.2-21.4-28.1
				c0-17.1,6.9-28.1,21.7-28.1c6.2,0,10.6,1,16.4,3.3c1.7-5.8,4.8-12.5,9.2-18.1c-8.1-4.2-16-6.5-28.9-6.5c-28.5,0-45,20.2-45,49.3
				c0,30.2,16.9,49.3,46,49.3c10.6,0,20.4-1.9,28.3-6.2c-3.5-4.6-7.5-10.8-9.8-18.1C1029,690.5,1025.9,690.8,1019.8,690.8
				 M939.4,653.9l-10.4-4.4c-6-2.5-9.6-4.6-9.6-8.5c0-6,5.4-7.3,12.5-7.3s14.4,0.8,24.4,4c1.2-6.9,1.2-13.3,0-19.4
				c-6.2-3.3-17.9-5-28.1-5c-20,0-35.2,10.8-35.2,27.1c0,14.6,6.2,21.9,23.7,28.9l8.1,3.3c7.7,3.1,10,5,10,10
				c0,7.5-7.5,8.7-13.7,8.7c-10.4,0-18.3-2.1-28.3-5.6c-1.7,6-1.7,13.9,0,20.2c8.5,4.6,20.2,6,32.5,6c19.8,0,35.6-10.4,35.6-29.1
				C960.9,667.4,954.2,660.1,939.4,653.9 M840.1,613.3c-27.9,0-45,18.7-45,50s18.1,48.7,49.1,48.7c10.6,0,22.1-1.9,29.4-5.4
				c1.5-6,1.5-13.9,0-20c-9.6,2.7-17.7,4.4-26.6,4.4c-14.4,0-24.4-5.4-26.4-20.6h58.7c0.8-2.3,1-10,1-13.1
				C880.3,629.1,864.5,613.3,840.1,613.3 M639.2,613.3c-10.2-0.2-19.2,1-27.9,3.1c-1.7,5.8-1.5,14.4,0,20.4
				c10.8-2.5,16.9-2.7,23.7-2.7c13.3,0,19.8,5.4,19.8,16.4v1c-4-0.4-8.7-0.8-12.1-0.8c-22.1,0-41,7.9-41,29.1
				c0,23.9,17.1,32.1,41.8,32.1c11.7,0,24.4-2.1,36-5.6v-53.9C679.6,626.6,665.7,613.9,639.2,613.3 M754.8,592.5v22.7
				c-4.6-1.2-9.4-1.5-13.5-1.5c-28.5,0-47.9,19.2-47.9,49.8c0,31.2,18.9,48.5,48.5,48.5c13.5,0,26.9-1.9,38.7-5.8V571.5
				c-7.3,2.7-15,6.5-21.4,11.7C755.8,585.8,754.8,588.5,754.8,592.5 M483.7,613.7c-7.5,0-14.8,1.7-19.4,4v-46.2
				c-7.3,2.7-15,6.5-21.4,11.7c-3.3,2.7-4.4,5.4-4.4,9.4v114.1c6.9,2.9,20.8,5.4,34.1,5.4c33.7,0,53.1-20.6,53.1-50.4
				C525.8,632,512,613.7,483.7,613.7"/>
			<g>
				<g>
					<path class="st0" d="M115.7,866.7V768c0-2.7,0.8-4.2,2.5-5.7c3-2.4,6.8-4.6,10.5-6v38.1c5.3-2,11-3.5,18.7-3.5
						c19.2,0,33.1,13,33.1,37.7c0,25.3-14.8,41.4-39.9,41.4C131.7,870.2,121.5,868.7,115.7,866.7z M167.3,828.6
						c0-17.7-9.3-27-22.1-27c-6.3,0-11,0.9-16.5,3.3v53.5c3.1,0.9,8,1.3,12.4,1.3C157.1,859.6,167.3,849,167.3,828.6z"/>
					<path class="st0" d="M188.3,865.6c-0.5-1.7-0.6-3.5-0.6-5.2c0-1.9,0.2-3.6,0.6-5.2c7.1,2.8,14.1,4.4,22.1,4.4
						c7.5,0,15.4-2.8,15.4-11.1c0-6.1-3.5-9.4-12.4-13.3l-5.8-2.5c-13.8-6-18.1-11.8-18.1-21.8c0-11.8,11.9-19.8,26.1-19.8
						c7.7,0,15.7,1.6,20.1,3.8c0.3,1.4,0.5,3.1,0.5,4.7c0,1.7-0.2,3.6-0.5,5.3c-6-2-11.6-3.3-18.4-3.3c-7.8,0-14.9,2.4-14.9,9.6
						c0,5.8,4.1,8,11.6,11.5l7.5,3.5c11.8,5.3,17.3,11.8,17.3,22.6c0,13.2-11.9,21.5-26.7,21.5C202,870.2,194.3,868.6,188.3,865.6z"
						/>
					<path class="st0" d="M249.7,795.7c7.1-2.4,17.6-4.7,27.6-4.7c22.3,0,37.2,13.2,37.2,38.3c0,25-15.4,40.7-38,40.7
						c-4.9,0-9.6-0.5-13.8-1.4v24.6c0,2.5-0.9,4.2-2.5,5.7c-2.8,2.7-6.9,4.6-10.5,6V795.7z M301.3,829.3c0-17.6-8.8-27.8-24.5-27.8
						c-4.1,0-8.9,0.6-14.1,2v54.3c3.3,0.9,8,1.6,13.3,1.6C291,859.5,301.3,849.4,301.3,829.3z"/>
					<path class="st0" d="M421.1,833.4h-50.7c0.8,16.3,9.4,26.4,25.1,26.4c7.8,0,14.8-1.6,21.5-3.8c0.3,1.6,0.5,3.3,0.5,5
						s-0.2,3.5-0.5,5c-5.3,2.4-14,4.1-22.4,4.1c-23.2,0-36.7-15.1-36.7-39.2c0-23.9,13-39.9,33.6-39.9c17.9,0,30.1,13,30.1,33.9
						C421.6,827.1,421.4,831.5,421.1,833.4z M409.3,823.7c0-13.2-6.4-22.6-18.1-22.6c-11,0-19.6,8.5-20.7,22.6H409.3z"/>
					<path class="st0" d="M544.6,826.2l0,42.9c-1.7,0.3-4.4,0.6-6.8,0.6c-2.4,0-4.6-0.3-6.3-0.6v-42.4c0-17.6-7.4-25.1-21.8-25.1
						c-6.1,0-12.2,1.3-18.2,3.8c3.1,5.5,4.7,12.4,4.7,20.9l0,42.9c-1.7,0.3-4.4,0.6-6.8,0.6c-2.4,0-4.6-0.3-6.3-0.6v-42.7
						c0-17.1-6.4-24.8-20.7-24.8c-6.6,0-11.1,0.8-15.5,2v65.5c-1.7,0.3-4.4,0.6-6.8,0.6c-2.4,0-4.6-0.3-6.3-0.6v-73.5
						c9.1-2.7,19-4.6,29.4-4.6c8.6,0,15.7,2,21.2,6.1c7.8-3.8,17.1-6.1,26.1-6.1C531.4,791,544.6,803,544.6,826.2z"/>
					<path class="st0" d="M559.8,795.7c7.1-2.4,17.6-4.7,27.6-4.7c22.3,0,37.2,13.2,37.2,38.3c0,25-15.4,40.7-38,40.7
						c-4.9,0-9.6-0.5-13.8-1.4v24.6c0,2.5-0.9,4.2-2.5,5.7c-2.8,2.7-6.9,4.6-10.5,6V795.7z M611.5,829.3c0-17.6-8.8-27.8-24.5-27.8
						c-4.1,0-8.9,0.6-14.1,2v54.3c3.3,0.9,8,1.6,13.3,1.6C601.1,859.5,611.5,849.4,611.5,829.3z"/>
					<path class="st0" d="M637.1,869.1v-76.8c1.6-0.3,3.6-0.6,5.7-0.6c1.7,0,3.9,0.2,5.5,0.6c0.6,3.3,1.1,7.1,1.3,10.7
						c5.3-7.4,12.4-11.3,20.7-11.3c2,0,4.1,0.3,6,0.6c0.3,1.6,0.5,3.3,0.5,4.9c0,1.7-0.2,3.8-0.6,5.7c-1.6-0.5-3.9-0.5-6-0.5
						c-11.1,0-19.9,9.4-19.9,23.4v43.3c-1.7,0.3-4.4,0.6-6.8,0.6S638.8,869.4,637.1,869.1z"/>
					<path class="st0" d="M743.8,833.4h-50.7c0.8,16.3,9.4,26.4,25.1,26.4c7.8,0,14.8-1.6,21.5-3.8c0.3,1.6,0.5,3.3,0.5,5
						s-0.2,3.5-0.5,5c-5.3,2.4-14,4.1-22.4,4.1c-23.2,0-36.7-15.1-36.7-39.2c0-23.9,13-39.9,33.6-39.9c17.9,0,30.1,13,30.1,33.9
						C744.3,827.1,744.1,831.5,743.8,833.4z M732,823.7c0-13.2-6.4-22.6-18.1-22.6c-11,0-19.6,8.5-20.7,22.6H732z"/>
					<path class="st0" d="M817,833.4h-50.7c0.8,16.3,9.4,26.4,25.1,26.4c7.8,0,14.8-1.6,21.5-3.8c0.3,1.6,0.5,3.3,0.5,5
						s-0.2,3.5-0.5,5c-5.3,2.4-14,4.1-22.4,4.1c-23.2,0-36.7-15.1-36.7-39.2c0-23.9,13-39.9,33.6-39.9c17.9,0,30.1,13,30.1,33.9
						C817.5,827.1,817.3,831.5,817,833.4z M805.2,823.7c0-13.2-6.4-22.6-18.1-22.6c-11,0-19.6,8.5-20.7,22.6H805.2z"/>
					<path class="st0" d="M829.8,869.1v-73.6c9.1-2.5,19.6-4.4,30.1-4.4c22.3,0,34.9,11.9,34.9,35.2v42.9c-1.7,0.3-4.4,0.6-6.8,0.6
						c-2.4,0-4.6-0.3-6.3-0.6v-42.4c0-17.1-7.8-25.1-22.6-25.1c-6.6,0-11.9,0.8-16.3,1.9v65.6c-1.7,0.3-4.4,0.6-6.8,0.6
						S831.5,869.4,829.8,869.1z"/>
					<path class="st0" d="M906.3,831.9c0-25.1,15.1-40.8,37.8-40.8c4.9,0,9.6,0.5,14,1.6V768c0-2.7,0.8-4.2,2.4-5.7
						c3-2.5,7.1-4.6,10.7-6v109.3c-6.9,2.4-17.3,4.7-27.8,4.7C921.1,870.3,906.3,857,906.3,831.9z M958.1,857.8v-54.6
						c-3.5-0.9-8-1.6-13.3-1.6c-15.2,0-25.3,10-25.3,30.3c0,17.6,8.8,27.9,24.3,27.9C948.1,859.8,952.9,859.2,958.1,857.8z"/>
					<path class="st0" d="M986.6,778.8c-0.2-2-0.3-4.6-0.3-6.6c0-2,0.2-4.6,0.3-6.4c1.9-0.5,4.6-0.5,7.1-0.5s5,0,6.8,0.5
						c0.2,1.9,0.3,4.4,0.3,6.4c0,2-0.2,4.6-0.3,6.6c-1.7,0.3-4.6,0.5-7.1,0.5S988.3,779.1,986.6,778.8z M986.9,869.1v-76.8
						c1.7-0.3,4.4-0.6,6.8-0.6c2.4,0,4.6,0.3,6.3,0.6v76.8c-1.7,0.3-4.4,0.6-6.8,0.6S988.6,869.4,986.9,869.1z"/>
					<path class="st0" d="M1126.2,826.2v42.9c-1.7,0.3-4.4,0.6-6.8,0.6c-2.4,0-4.6-0.3-6.3-0.6v-42.4c0-17.6-7.4-25.1-21.8-25.1
						c-6.1,0-12.2,1.3-18.2,3.8c3.1,5.5,4.7,12.4,4.7,20.9l0,42.9c-1.7,0.3-4.4,0.6-6.8,0.6c-2.4,0-4.6-0.3-6.3-0.6v-42.7
						c0-17.1-6.4-24.8-20.7-24.8c-6.6,0-11.1,0.8-15.5,2v65.5c-1.7,0.3-4.4,0.6-6.8,0.6c-2.4,0-4.6-0.3-6.3-0.6v-73.5
						c9.1-2.7,19-4.6,29.4-4.6c8.6,0,15.7,2,21.2,6.1c7.8-3.8,17.1-6.1,26.1-6.1C1113,791,1126.2,803,1126.2,826.2z"/>
					<path class="st0" d="M1201.2,833.4h-50.7c0.8,16.3,9.4,26.4,25.1,26.4c7.8,0,14.8-1.6,21.5-3.8c0.3,1.6,0.5,3.3,0.5,5
						s-0.2,3.5-0.5,5c-5.3,2.4-14,4.1-22.4,4.1c-23.2,0-36.7-15.1-36.7-39.2c0-23.9,13-39.9,33.6-39.9c17.9,0,30.1,13,30.1,33.9
						C1201.6,827.1,1201.5,831.5,1201.2,833.4z M1189.4,823.7c0-13.2-6.4-22.6-18.1-22.6c-11,0-19.6,8.5-20.7,22.6H1189.4z"/>
					<path class="st0" d="M1213.9,869.1v-73.6c9.1-2.5,19.6-4.4,30.1-4.4c22.3,0,34.8,11.9,34.8,35.2v42.9c-1.7,0.3-4.4,0.6-6.8,0.6
						c-2.4,0-4.6-0.3-6.3-0.6v-42.4c0-17.1-7.8-25.1-22.6-25.1c-6.6,0-11.9,0.8-16.3,1.9v65.6c-1.7,0.3-4.4,0.6-6.8,0.6
						C1217.9,869.7,1215.7,869.4,1213.9,869.1z"/>
					<path class="st0" d="M1332.5,858.5c0.3,1.7,0.5,3.5,0.5,5c0,1.7-0.2,3.5-0.5,5c-2.8,0.9-7.4,1.6-12.2,1.6
						c-14.8,0-27-8.9-27-30.3v-57.8c0-2.5,0.9-4.1,2.5-5.5c2.8-2.5,6.8-4.6,10.5-6v21.7h26.2c0.3,1.6,0.5,3.3,0.5,5.2
						c0,1.7-0.2,3.6-0.5,5.3h-26.2v37.4c0,12.7,6.4,19.5,15.2,19.5C1326.1,859.6,1329.1,859.3,1332.5,858.5z"/>
					<path class="st0" d="M1338.1,830.8c0-25.1,13-39.7,33.9-39.7c21.5,0,33.9,14.4,33.9,39.7c0,24.6-12.9,39.6-34.1,39.6
						C1351,870.3,1338.1,855.6,1338.1,830.8z M1392.7,830.8c0-19.3-7.1-29.2-20.7-29.2c-13.3,0-20.7,10.2-20.7,29.2
						c0,18.7,7.1,29,20.6,29C1385.5,859.8,1392.7,849.8,1392.7,830.8z"/>
					<path class="st0" d="M1413.5,865.6c-0.5-1.7-0.6-3.5-0.6-5.2c0-1.9,0.2-3.6,0.6-5.2c7.1,2.8,14.1,4.4,22.1,4.4
						c7.5,0,15.4-2.8,15.4-11.1c0-6.1-3.5-9.4-12.4-13.3l-5.8-2.5c-13.8-6-18.1-11.8-18.1-21.8c0-11.8,11.9-19.8,26.1-19.8
						c7.7,0,15.7,1.6,20.1,3.8c0.3,1.4,0.5,3.1,0.5,4.7c0,1.7-0.2,3.6-0.5,5.3c-6-2-11.6-3.3-18.4-3.3c-7.8,0-14.9,2.4-14.9,9.6
						c0,5.8,4.1,8,11.6,11.5l7.5,3.5c11.8,5.3,17.3,11.8,17.3,22.6c0,13.2-11.9,21.5-26.7,21.5
						C1427.2,870.2,1419.5,868.6,1413.5,865.6z"/>
				</g>
			</g>
		</g>
		<rect x="-0.2" y="0.1" class="st1" width="1580" height="984.2"/>
	</g>
</g>
</svg>
