<?xml version="1.0" encoding="utf-8"?>
<!-- Generator: Adobe Illustrator 16.0.4, SVG Export Plug-In . SVG Version: 6.00 Build 0)  -->
<!DOCTYPE svg PUBLIC "-//W3C//DTD SVG 1.1//EN" "http://www.w3.org/Graphics/SVG/1.1/DTD/svg11.dtd">
<svg version="1.1" xmlns="http://www.w3.org/2000/svg" xmlns:xlink="http://www.w3.org/1999/xlink" x="0px" y="0px"
	 width="1362.9px" height="497.5px" viewBox="0 0 1362.9 497.5" style="enable-background:new 0 0 1362.9 497.5;"
	 xml:space="preserve">
<style type="text/css">
<![CDATA[
	.st0{fill:#FFFFFF;}
	.st1{fill:#CC092F;}
	.st2{fill:#CF0A2C;}
]]>
</style>
<g id="Layer_1">
</g>
<g id="PROPORÇ_x2DC_AO_E_REGRAS">
	<path d="M414.8,329c-2.1,0-4.4,0-6.1,0.4c-0.1,1.6-0.3,3.8-0.3,5.5c0,1.7,0.1,3.9,0.3,5.6c1.5,0.3,3.6,0.4,5.8,0.4
		c2.2,0,4.6-0.1,6.1-0.4c0.1-1.7,0.3-3.9,0.3-5.6c0-1.8-0.1-3.9-0.3-5.5C419.2,329,417,329,414.8,329z M388.3,352.2l-19,51.1
		l-19-51.1c-2.2-0.4-4.2-0.5-6.2-0.5c-2,0-3.9,0.1-6.1,0.5l26.4,65.8c1.6,0.3,3.1,0.4,4.7,0.4c1.5,0,2.8-0.1,4.4-0.4l26.4-65.8
		c-2.2-0.4-3.9-0.5-5.9-0.5C392.1,351.6,390.5,351.8,388.3,352.2z M505,192.2c-1.5-0.4-5.2-0.8-7.3-0.8c-12.4,0-19.5,4.8-26.2,13.4
		c-0.6-4.4-1.5-8-2.9-12.4c-2.5-0.8-6.9-1-10.7-1c-3.6,0-8.2,0.4-10.5,1v94.9c3.1,0.8,8.4,1,13,1c4.4,0,10.3-0.4,13-1V241
		c0-18.4,9.6-28.3,22.6-28.3c2.3,0,6.3,0,8.6,0.4C506.1,207.1,506.3,198.3,505,192.2z M477.7,331.3v21.1c-3.8-0.9-7.8-1.3-12-1.3
		c-19.5,0-32.4,13.5-32.4,35c0,21.5,12.6,33,31.7,33c9,0,17.9-2,23.8-4v-93.7c-3.1,1.2-6.6,3-9.2,5.1
		C478.4,327.7,477.7,329,477.7,331.3z M477.7,408.3c-4.4,1.2-8.6,1.8-12.2,1.8c-13.3,0-20.9-8.9-20.9-24c0-17.4,8.6-26,21.7-26
		c4.6,0,8.5,0.5,11.4,1.3V408.3z M1259.8,351.1c-5.8,0-12.4,0.9-17.4,2.6c-0.3,1.2-0.4,2.7-0.4,4.2c0,1.6,0.1,3.2,0.4,4.6
		c5.8-1.6,11.2-2.3,17-2.3c10.8,0,16.8,5,16.8,16.1v2.6c-3.6-0.5-6.9-0.8-12.1-0.8c-16.8,0-27.1,7.4-27.1,20c0,14.5,11,21,26.2,21
		c7.8,0,16-1.2,23.4-3.4v-37.9C1286.7,359,1276,351.1,1259.8,351.1z M1276.2,409c-2.8,0.7-8.5,1.3-12.7,1.3
		c-10.5,0-16.2-4.4-16.2-12.5c0-8.3,5.9-11.7,17.5-11.7c4.7,0,8.1,0.1,11.3,0.7V409z M389.2,190.6c-7.5,0-14.9,1.7-19.5,4V148
		c-7.3,2.7-15.1,6.5-21.6,11.7c-3.4,2.7-4.4,5.4-4.4,9.4V284c6.9,2.9,21,5.4,34.4,5.4c33.9,0,53.4-20.7,53.4-50.7
		C431.5,209,417.7,190.6,389.2,190.6z M379.5,268.3c-2.7,0-6.9,0-9.8-1v-52.2c3.6-1.9,8.6-2.9,15.1-2.9c13,0,19.9,9,19.9,26
		C404.7,255.9,396.5,268.3,379.5,268.3z M409.1,352.2V418c1.5,0.3,3.4,0.5,5.4,0.5c2,0,4.3-0.3,5.8-0.5v-65.8
		c-1.5-0.3-3.4-0.5-5.4-0.5C412.8,351.6,410.5,351.9,409.1,352.2z M926.5,289.4c10.7,0,20.5-1.9,28.5-6.3
		c-3.6-4.6-7.5-10.9-9.8-18.2c-7.3,2.9-10.5,3.1-16.5,3.1c-13,0-21.6-10.3-21.6-28.3c0-17.2,6.9-28.3,21.8-28.3
		c6.3,0,10.7,1,16.5,3.4c1.7-5.9,4.8-12.6,9.2-18.2c-8.2-4.2-16.1-6.5-29.1-6.5c-28.7,0-45.2,20.3-45.2,49.7
		C880.2,270.2,897.2,289.4,926.5,289.4z M183.3,119c-13.2,0-27.5,1.2-41.8,3.6c14.4-18.5,37.2-30.4,62.6-30.4
		c18.8,0,37.5,7.1,50.2,17.6c2.3,1.9,4,2.1,5.8,0.3c1.8-1.7,1.6-3.5-0.3-5.7c-16.5-19.2-40.7-32.1-69.3-31.6
		c-37.4,0.7-69.1,24.3-81.2,57.1c-11.1,3.5-21.2,7.6-30.2,12.6c-2.5,1.4-3.3,3.1-2.5,5.2c0.9,1.9,2.6,2.6,5.1,1.9
		c7.7-2.2,15.6-4.1,23.9-5.9c-0.9,4.3-1.4,8.8-1.4,13.5c-0.7,30.2,15.4,58.9,40.4,74.6c2.5,1.6,4.6,1.6,6-0.3
		c1.4-1.9,1.2-3.6-0.9-5.5C133.8,211.9,125,190.8,125,170c0-10.5,2.1-20.7,6.1-29.9c8.3-0.7,17.2-1.2,27-1.2
		c63.9,0,117.7,21.1,117.7,48.7c0,14-17.7,28-38.8,37.3c-5.1,2.2-5.6,3.8-4.9,6c0.7,2.1,3,2.8,5.6,1.9
		c36.8-12.1,64.7-31.9,64.7-55.9C302.6,144.2,249.9,119,183.3,119z M1028.6,342.8c1.5,0.3,3.4,0.4,4.8,0.4c1.6,0,3-0.1,4.3-0.4
		L1048,332l9.8,10.8c1.5,0.3,3.1,0.4,4.6,0.4c1.6,0,3.6-0.1,5-0.4l-14.9-17.1c-1.5-0.3-3-0.4-4.4-0.4c-1.3,0-3,0.1-4.4,0.4
		L1028.6,342.8z M1001.3,289.4c29.3,0,45.7-19.5,45.7-49.4c0-30.2-16.3-49.9-45.7-49.9c-29.1,0-45.5,19.9-45.5,49.9
		C955.8,270.4,973,289.4,1001.3,289.4z M1001.3,211.1c14.9,0,19.1,12.2,19.1,28.9c0,17.6-4.8,28.5-19.1,28.5
		c-14.5,0-18.9-11.7-18.9-28.5C982.5,223.7,986.9,211.1,1001.3,211.1z M209,212.6l-18.9,10.9v64.9h20.2c1.9,0,3.4-1.5,3.4-3.4v-69.9
		C213.8,212.4,211.2,211.4,209,212.6z M169.6,237.9v48.3c0,1.2,1,2.2,2.2,2.2h13v-61.8l-12.9,7.5
		C170.5,234.8,169.6,236.1,169.6,237.9z M833.5,289.4c19.9,0,35.8-10.5,35.8-29.3c0-15.5-6.7-22.8-21.6-29.1l-10.5-4.4
		c-6.1-2.5-9.6-4.6-9.6-8.6c0-6.1,5.4-7.3,12.6-7.3c7.1,0,14.5,0.8,24.5,4c1.3-6.9,1.3-13.4,0-19.5c-6.3-3.4-18-5-28.3-5
		c-20.1,0-35.4,10.9-35.4,27.2c0,14.7,6.3,22,23.9,29.1l8.2,3.4c7.8,3.1,10.1,5,10.1,10.1c0,7.5-7.5,8.8-13.8,8.8
		c-10.5,0-18.4-2.1-28.5-5.7c-1.7,6.1-1.7,14,0,20.3C809.4,288,821.2,289.4,833.5,289.4z M926.3,352.2V418c1.5,0.3,3.4,0.5,5.4,0.5
		c2,0,4.3-0.3,5.8-0.5v-65.8c-1.5-0.3-3.4-0.5-5.4-0.5C930.1,351.6,927.8,351.9,926.3,352.2z M781.6,351.6c-7.1,0-13.2,3.4-17.8,9.7
		c-0.1-3.1-0.5-6.3-1.1-9.1c-1.4-0.4-3.2-0.5-4.7-0.5c-1.7,0-3.5,0.3-4.8,0.5V418c1.5,0.3,3.4,0.5,5.4,0.5c2,0,4.3-0.3,5.8-0.5
		v-37.1c0-12,7.5-20,17.1-20c1.7,0,3.8,0,5.1,0.4c0.4-1.6,0.5-3.4,0.5-4.8c0-1.3-0.1-2.8-0.4-4.2
		C785.1,351.9,783.4,351.6,781.6,351.6z M747.8,190.1c-28.1,0-45.3,18.9-45.3,50.3c0,31.4,18.2,49,49.4,49c10.7,0,22.2-1.9,29.5-5.4
		c1.5-6.1,1.5-14,0-20.1c-9.6,2.7-17.8,4.4-26.8,4.4c-14.5,0-24.5-5.4-26.6-20.7h59.1c0.8-2.3,1-10.1,1-13.2
		C788.3,206.1,772.3,190.1,747.8,190.1z M728.1,228.5c1.9-11.5,8.8-18.4,19.3-18.4c11.7,0,16.3,8,16.8,18.4H728.1z M1048,351.1
		c-17.6,0-28.8,13.7-28.8,34.2c0,20.7,11.6,33.6,31.5,33.6c7.3,0,14.7-1.5,19.2-3.5c0.3-1.4,0.4-2.8,0.4-4.3c0-1.5-0.1-3-0.4-4.3
		c-5.8,1.9-11.7,3.2-18.4,3.2c-13.5,0-20.9-8.6-21.5-22.6h43.5c0.3-1.6,0.4-5.4,0.4-7.3C1073.9,362.3,1063.4,351.1,1048,351.1z
		 M1030.1,379.1c1-12.1,8.4-19.4,17.8-19.4c10,0,15.5,8.1,15.5,19.4H1030.1z M708.3,351.1c-8.6,0-17.6,2-23.7,4v93.5
		c3.1-1.2,6.6-2.8,9-5.1c1.4-1.2,2.2-2.7,2.2-4.8v-21.1c3.6,0.8,7.7,1.2,11.8,1.2c19.4,0,32.6-13.5,32.6-34.9
		C740.2,362.4,727.4,351.1,708.3,351.1z M707.2,409.8c-4.6,0-8.6-0.5-11.4-1.3v-46.6c4.4-1.2,8.6-1.7,12.1-1.7
		c13.5,0,21,8.7,21,23.8C728.9,401.2,720,409.8,707.2,409.8z M995,331.3v21.1c-3.8-0.9-7.8-1.3-12-1.3c-19.5,0-32.4,13.5-32.4,35
		c0,21.5,12.7,33,31.8,33c9,0,17.9-2,23.8-4v-93.7c-3.1,1.2-6.6,3-9.2,5.1C995.7,327.7,995,329,995,331.3z M995,408.3
		c-4.4,1.2-8.6,1.8-12.2,1.8c-13.3,0-20.9-8.9-20.9-24c0-17.4,8.6-26,21.7-26c4.6,0,8.5,0.5,11.4,1.3V408.3z M932.1,329
		c-2.2,0-4.4,0-6.1,0.4c-0.1,1.6-0.3,3.8-0.3,5.5c0,1.7,0.1,3.9,0.3,5.6c1.5,0.3,3.6,0.4,5.8,0.4c2.2,0,4.6-0.1,6.1-0.4
		c0.1-1.7,0.3-3.9,0.3-5.6c0-1.8-0.1-3.9-0.3-5.5C936.4,329,934.3,329,932.1,329z M823.4,351.1c-17.6,0-28.8,13.7-28.8,34.2
		c0,20.7,11.6,33.6,31.5,33.6c7.3,0,14.7-1.5,19.2-3.5c0.3-1.4,0.4-2.8,0.4-4.3c0-1.5-0.1-3-0.4-4.3c-5.8,1.9-11.7,3.2-18.4,3.2
		c-13.5,0-20.9-8.6-21.5-22.6h43.5c0.3-1.6,0.4-5.4,0.4-7.3C849.2,362.3,838.7,351.1,823.4,351.1z M805.5,379.1
		c0.9-12.1,8.4-19.4,17.8-19.4c10,0,15.5,8.1,15.5,19.4H805.5z M905.6,352.2l-19,51.1l-19-51.1c-2.1-0.4-4.2-0.5-6.2-0.5
		c-2,0-3.9,0.1-6.1,0.5l26.4,65.8c1.6,0.3,3.1,0.4,4.7,0.4c1.5,0,2.8-0.1,4.4-0.4l26.4-65.8c-2.2-0.4-3.9-0.5-5.9-0.5
		C909.4,351.6,907.8,351.8,905.6,352.2z M524.3,351.1c-5.8,0-12.4,0.9-17.4,2.6c-0.3,1.2-0.4,2.7-0.4,4.2c0,1.6,0.1,3.2,0.4,4.6
		c5.8-1.6,11.2-2.3,16.9-2.3c10.8,0,16.8,5,16.8,16.1v2.6c-3.6-0.5-6.9-0.8-12.1-0.8c-16.8,0-27,7.4-27,20c0,14.5,11,21,26.2,21
		c7.8,0,16-1.2,23.4-3.4v-37.9C551.2,359,540.6,351.1,524.3,351.1z M540.7,409c-2.8,0.7-8.5,1.3-12.7,1.3
		c-10.5,0-16.1-4.4-16.1-12.5c0-8.3,5.9-11.7,17.5-11.7c4.7,0,8.1,0.1,11.3,0.7V409z M1213.2,352.2V418c1.5,0.3,3.4,0.5,5.4,0.5
		c2,0,4.3-0.3,5.8-0.5v-65.8c-1.5-0.3-3.4-0.5-5.4-0.5C1217,351.6,1214.7,351.9,1213.2,352.2z M545.7,190.1
		c-10.3-0.2-19.3,1-28.1,3.1c-1.7,5.9-1.5,14.5,0,20.5c10.9-2.5,17-2.7,23.9-2.7c13.4,0,19.9,5.4,19.9,16.6v1
		c-4-0.4-8.8-0.8-12.2-0.8c-22.2,0-41.3,8-41.3,29.3c0,24.1,17.2,32.3,42.1,32.3c11.7,0,24.5-2.1,36.2-5.7v-54.3
		C586.3,203.5,572.3,190.8,545.7,190.1z M561.4,268.1c-1.5,0.4-8,1-11.1,1c-11.9,0-18.4-3.6-18.4-11.9c0-8.4,6.5-11.7,18.4-11.7
		c4,0,8.6,0.4,11.1,0.6V268.1z M1219,329c-2.1,0-4.4,0-6.1,0.4c-0.1,1.6-0.3,3.8-0.3,5.5c0,1.7,0.1,3.9,0.3,5.6
		c1.5,0.3,3.6,0.4,5.8,0.4c2.2,0,4.6-0.1,6.1-0.4c0.1-1.7,0.3-3.9,0.3-5.6c0-1.8-0.1-3.9-0.3-5.5C1223.3,329,1221.1,329,1219,329z
		 M1112.5,351.1c-9,0-18,1.6-25.8,3.8V418c1.5,0.3,3.4,0.5,5.4,0.5c2,0,4.3-0.3,5.8-0.5v-56.2c3.8-0.9,8.4-1.6,14-1.6
		c12.7,0,19.4,6.9,19.4,21.5V418c1.5,0.3,3.4,0.5,5.4,0.5c2,0,4.3-0.3,5.8-0.5v-36.7C1142.4,361.3,1131.6,351.1,1112.5,351.1z
		 M687.9,148c-7.3,2.7-15.1,6.5-21.6,11.7c-3.4,2.7-4.4,5.4-4.4,9.4V192c-4.6-1.3-9.4-1.5-13.6-1.5c-28.7,0-48.2,19.3-48.2,50.1
		c0,31.4,19.1,48.8,48.8,48.8c13.6,0,27-1.9,39-5.9V148z M661.9,266.8c-4.4,1.3-7.5,1.5-11.1,1.5c-17.2,0-23.9-11.3-23.9-27.7
		c0-18.2,6.7-29.3,23.7-29.3c5,0,8.2,0.6,11.3,1.5V266.8z M1186.5,409.8c-14.3,0-20.5-9.4-20.5-24.9c0-15.5,6.3-24.6,20.3-24.6
		c5,0,9.4,1.1,14,3c0.3-1.5,0.4-3.2,0.4-4.6c0-1.5-0.1-3-0.4-4.3c-4.6-2-9.6-3.2-16-3.2c-18.4,0-29.6,13.7-29.6,33.9
		c0,20.9,10.6,33.9,30,33.9c6.3,0,11.7-0.9,16.7-3.1c0.3-1.3,0.4-3,0.4-4.4c0-1.5-0.1-3-0.4-4.3
		C1197,408.6,1192.2,409.8,1186.5,409.8z M619.3,351.1c-17.6,0-28.8,13.7-28.8,34.2c0,20.7,11.6,33.6,31.5,33.6
		c7.3,0,14.7-1.5,19.2-3.5c0.3-1.4,0.4-2.8,0.4-4.3c0-1.5-0.1-3-0.4-4.3c-5.8,1.9-11.7,3.2-18.4,3.2c-13.5,0-20.9-8.6-21.5-22.6
		h43.5c0.3-1.6,0.4-5.4,0.4-7.3C645.1,362.3,634.6,351.1,619.3,351.1z M601.4,379.1c0.9-12.1,8.3-19.4,17.8-19.4
		c10,0,15.5,8.1,15.5,19.4H601.4z"/>
</g>
</svg>
