<?xml version="1.0" encoding="utf-8"?>
<!-- Generator: Adobe Illustrator 22.0.1, SVG Export Plug-In . SVG Version: 6.00 Build 0)  -->
<svg version="1.1" xmlns="http://www.w3.org/2000/svg" xmlns:xlink="http://www.w3.org/1999/xlink" x="0px" y="0px"
	 viewBox="0 0 1104.4 827.9" style="enable-background:new 0 0 1104.4 827.9;" xml:space="preserve">
<style type="text/css">
	.st0{fill:none;}
</style>
<g id="Layer_1">
</g>
<g id="PROPORÇ_x2DC_AO_E_REGRAS">
	<g>
		<rect x="-0.7" y="-0.4" class="st0" width="1105.2" height="828.2"/>
		<g>
			<path d="M540.6,199.7c-24.2,0-50.8,2.2-76.9,6.7c26.5-34,68.5-56,115.4-56c34.6,0,69.2,13,92.5,32.4c4.2,3.5,7.4,3.8,10.7,0.6
				c3.2-3.2,2.9-6.4-0.6-10.5c-30.4-35.3-75-59.2-127.7-58.2C485,116,426.5,159.6,404.2,220c-20.4,6.4-39.1,14-55.6,23.2
				c-4.5,2.5-6.1,5.7-4.5,9.5c1.6,3.5,4.8,4.8,9.4,3.5c14.2-4.1,28.8-7.6,44-10.8c-1.6,8-2.6,16.2-2.6,24.8
				c-1.3,55.7,28.4,108.5,74.4,137.4c4.5,2.9,8.4,2.9,11-0.6c2.6-3.5,2.3-6.7-1.6-10.2c-29.1-26.1-45.3-64.9-45.3-103.4
				c0-19.4,3.9-38.2,11.3-55c15.2-1.3,31.7-2.2,49.8-2.2c117.7,0,216.9,38.8,216.9,89.7c0,25.8-32.7,51.5-71.4,68.7
				c-9.4,4.1-10.3,7-9.1,11.1c1.3,3.8,5.5,5.1,10.3,3.5c67.9-22.3,119.3-58.8,119.3-103.1C760.5,246.1,663.5,199.7,540.6,199.7"/>
			<g>
				<path d="M588.1,372.1l-34.8,20.1v119.5h37.3c3.5,0,6.3-2.8,6.3-6.3V376.6C596.8,371.7,592,369.9,588.1,372.1z"/>
				<path d="M543.5,397.8l-23.9,13.7c-2.5,1.4-4.1,3.7-4.1,7v89.1c0,2.2,1.8,4,4,4h23.9V397.8z"/>
			</g>
		</g>
		<g>
			<g>
				<path d="M251.7,657.9V711c-2.1,0.4-5.4,0.8-8.4,0.8c-2.9,0-5.6-0.4-7.8-0.8v-52.5c0-21.8-9.1-31.1-27-31.1
					c-7.6,0-15.2,1.6-22.6,4.7c3.9,6.8,5.8,15.4,5.8,25.9V711c-2.1,0.4-5.4,0.8-8.4,0.8s-5.6-0.4-7.8-0.8v-52.9
					c0-21.2-8-30.7-25.7-30.7c-8.2,0-13.8,1-19.3,2.5V711c-2.1,0.4-5.4,0.8-8.4,0.8c-2.9,0-5.6-0.4-7.8-0.8v-91
					c11.3-3.3,23.5-5.6,36.4-5.6c10.7,0,19.4,2.5,26.3,7.6c9.7-4.7,21.2-7.6,32.3-7.6C235.4,614.3,251.7,629.1,251.7,657.9z"/>
				<path d="M344.6,666.8h-62.8c1,20.2,11.7,32.7,31.1,32.7c9.7,0,18.3-1.9,26.6-4.7c0.4,1.9,0.6,4.1,0.6,6.2c0,2.1-0.2,4.3-0.6,6.2
					c-6.6,2.9-17.3,5.1-27.8,5.1c-28.8,0-45.5-18.7-45.5-48.6c0-29.6,16.1-49.4,41.6-49.4c22.2,0,37.3,16.1,37.3,42
					C345.2,659,345,664.5,344.6,666.8z M330,654.8c0-16.3-8-28-22.4-28c-13.6,0-24.3,10.5-25.7,28H330z"/>
				<path d="M356.9,664.9c0-31.1,18.7-50.6,46.9-50.6c6,0,11.9,0.6,17.3,1.9v-30.5c0-3.3,1-5.3,2.9-7c3.7-3.1,8.8-5.6,13.2-7.4
					v135.3c-8.6,2.9-21.4,5.8-34.4,5.8C375.1,712.5,356.9,696,356.9,664.9z M421,696.9v-67.7c-4.3-1.2-9.9-1.9-16.5-1.9
					c-18.9,0-31.3,12.4-31.3,37.5c0,21.8,10.9,34.6,30.1,34.6C408.6,699.5,414.6,698.7,421,696.9z"/>
				<path d="M456.3,599.1c-0.2-2.5-0.4-5.6-0.4-8.2c0-2.5,0.2-5.6,0.4-8c2.3-0.6,5.6-0.6,8.8-0.6s6.2,0,8.4,0.6
					c0.2,2.3,0.4,5.4,0.4,8c0,2.5-0.2,5.6-0.4,8.2c-2.1,0.4-5.6,0.6-8.8,0.6C461.6,599.7,458.4,599.5,456.3,599.1z M456.7,711v-95.1
					c2.1-0.4,5.4-0.8,8.4-0.8c2.9,0,5.6,0.4,7.8,0.8V711c-2.1,0.4-5.4,0.8-8.4,0.8C461.6,711.7,458.8,711.3,456.7,711z"/>
				<path d="M486.2,706.7c-0.6-2.1-0.8-4.3-0.8-6.4c0-2.3,0.2-4.5,0.8-6.4c8.8,3.5,17.5,5.4,27.4,5.4c9.3,0,19.1-3.5,19.1-13.8
					c0-7.6-4.3-11.7-15.4-16.5l-7.2-3.1c-17.1-7.4-22.4-14.6-22.4-27c0-14.6,14.8-24.5,32.3-24.5c9.5,0,19.4,1.9,24.9,4.7
					c0.4,1.8,0.6,3.9,0.6,5.8c0,2.1-0.2,4.5-0.6,6.6c-7.4-2.5-14.4-4.1-22.8-4.1c-9.7,0-18.5,2.9-18.5,11.9c0,7.2,5.1,9.9,14.4,14.2
					l9.3,4.3c14.6,6.6,21.4,14.6,21.4,28c0,16.3-14.8,26.6-33.1,26.6C503.1,712.3,493.5,710.4,486.2,706.7z"/>
				<path d="M637.7,666.8h-62.8c1,20.2,11.7,32.7,31.1,32.7c9.7,0,18.3-1.9,26.6-4.7c0.4,1.9,0.6,4.1,0.6,6.2c0,2.1-0.2,4.3-0.6,6.2
					c-6.6,2.9-17.3,5.1-27.8,5.1c-28.8,0-45.5-18.7-45.5-48.6c0-29.6,16.1-49.4,41.6-49.4c22.2,0,37.3,16.1,37.3,42
					C638.3,659,638.1,664.5,637.7,666.8z M623.1,654.8c0-16.3-8-28-22.4-28c-13.6,0-24.3,10.5-25.7,28H623.1z"/>
				<path d="M653.6,711v-95.1c1.9-0.4,4.5-0.8,7-0.8c2.1,0,4.9,0.2,6.8,0.8c0.8,4.1,1.4,8.8,1.6,13.2c6.6-9.1,15.4-14,25.7-14
					c2.5,0,5.1,0.4,7.4,0.8c0.4,1.9,0.6,4.1,0.6,6c0,2.1-0.2,4.7-0.8,7c-1.9-0.6-4.9-0.6-7.4-0.6c-13.8,0-24.7,11.7-24.7,29V711
					c-2.1,0.4-5.4,0.8-8.4,0.8C658.4,711.7,655.7,711.3,653.6,711z"/>
				<path d="M747.6,711l-38.1-95.1c3.1-0.6,5.8-0.8,8.8-0.8c2.9,0,5.8,0.2,8.9,0.8l27.4,73.9l27.4-73.9c3.1-0.6,5.4-0.8,8.4-0.8
					c2.9,0,5.4,0.2,8.6,0.8L760.8,711c-2.3,0.4-4.3,0.6-6.4,0.6C752.1,711.5,749.9,711.3,747.6,711z"/>
				<path d="M809.5,599.1c-0.2-2.5-0.4-5.6-0.4-8.2c0-2.5,0.2-5.6,0.4-8c2.3-0.6,5.6-0.6,8.8-0.6s6.2,0,8.4,0.6
					c0.2,2.3,0.4,5.4,0.4,8c0,2.5-0.2,5.6-0.4,8.2c-2.1,0.4-5.6,0.6-8.8,0.6C814.7,599.7,811.6,599.5,809.5,599.1z M809.9,711v-95.1
					c2.1-0.4,5.4-0.8,8.4-0.8c2.9,0,5.6,0.4,7.8,0.8V711c-2.1,0.4-5.4,0.8-8.4,0.8C814.7,711.7,812,711.3,809.9,711z"/>
				<path d="M900.8,696c1,3.5,3.5,7.8,6.4,11.3c-6.8,3.3-14.4,5.1-24.7,5.1c-27.6,0-43.8-18.3-43.8-49c0-29.6,16.7-49,43.2-49
					c10.1,0,17.7,2.1,24.1,5.4c-2.1,2.3-4.3,6.4-5.8,11.1c-5.4-2.5-10.5-3.3-16.1-3.3c-19.3,0-29,13.2-29,35.6
					c0,22.2,9.5,36,28.8,36C890.5,699.1,895,698.3,900.8,696z M988.7,666.8h-62.8c1,20.2,11.7,32.7,31.1,32.7
					c9.7,0,18.3-1.9,26.6-4.7c0.4,1.9,0.6,4.1,0.6,6.2c0,2.1-0.2,4.3-0.6,6.2c-6.6,2.9-17.3,5.1-27.8,5.1
					c-28.8,0-45.5-18.7-45.5-48.6c0-29.6,16.1-49.4,41.6-49.4c22.2,0,37.3,16.1,37.3,42C989.3,659,989.1,664.5,988.7,666.8z
					 M974.1,654.8c0-16.3-8-28-22.4-28c-13.6,0-24.3,10.5-25.7,28H974.1z"/>
			</g>
		</g>
	</g>
</g>
</svg>
