<?xml version="1.0" encoding="utf-8"?>
<!-- Generator: Adobe Illustrator 16.0.4, SVG Export Plug-In . SVG Version: 6.00 Build 0)  -->
<!DOCTYPE svg PUBLIC "-//W3C//DTD SVG 1.1//EN" "http://www.w3.org/Graphics/SVG/1.1/DTD/svg11.dtd">
<svg version="1.1" xmlns="http://www.w3.org/2000/svg" xmlns:xlink="http://www.w3.org/1999/xlink" x="0px" y="0px"
	 width="1163.2px" height="497.5px" viewBox="0 0 1163.2 497.5" style="enable-background:new 0 0 1163.2 497.5;"
	 xml:space="preserve">
<style type="text/css">
<![CDATA[
	.st0{fill:#FFFFFF;}
	.st1{fill:#CC092F;}
	.st2{fill:#CF0A2C;}
]]>
</style>
<g id="Layer_1">
</g>
<g id="PROPORÇ_x2DC_AO_E_REGRAS">
	<path class="st0" d="M498.2,355.5v56.1c-3.9,0.9-8.3,1.6-13.7,1.6c-12.5,0-19.1-6.7-19.1-21.4v-36.3c-1.5-0.3-3.4-0.5-5.4-0.5
		c-2,0-4.3,0.3-5.8,0.5v36.7c0,19.9,10.5,30,29.6,30c8.8,0,17.8-1.6,25.6-3.8v-63c-1.5-0.3-3.5-0.5-5.5-0.5
		C501.8,355,499.6,355.2,498.2,355.5z M209,216l-18.9,10.9v64.9h20.2c1.9,0,3.4-1.5,3.4-3.4v-69.9C213.8,215.7,211.2,214.7,209,216z
		 M525,334.6v86.7c1.5,0.3,3.4,0.5,5.4,0.5c2,0,4.3-0.3,5.8-0.5v-96.6c-3.2,1.2-6.5,3.1-9,5.1C525.6,331,525,332.3,525,334.6z
		 M169.6,241.2v48.3c0,1.2,1,2.2,2.2,2.2h13v-61.8l-13,7.5C170.5,238.1,169.6,239.4,169.6,241.2z M1072.1,384.4l-6.4-3
		c-6.5-3-10-4.8-10-9.8c0-6.2,6.1-8.2,12.8-8.2c5.8,0,10.6,1.1,15.7,2.8c0.3-1.5,0.4-3.1,0.4-4.6c0-1.3-0.1-2.8-0.4-4
		c-3.8-1.9-10.6-3.2-17.2-3.2c-12.1,0-22.3,6.9-22.3,17c0,8.6,3.6,13.6,15.5,18.7l5,2.2c7.7,3.4,10.6,6.2,10.6,11.4
		c0,7.1-6.7,9.6-13.2,9.6c-6.9,0-12.9-1.3-19-3.8c-0.4,1.3-0.5,2.8-0.5,4.4c0,1.5,0.1,3,0.5,4.4c5.1,2.6,11.7,3.9,20.5,3.9
		c12.6,0,22.9-7.1,22.9-18.4C1086.9,394.5,1082.2,389,1072.1,384.4z M886.6,332.3c-2.1,0-4.4,0-6.1,0.4c-0.1,1.6-0.3,3.8-0.3,5.5
		c0,1.7,0.1,3.9,0.3,5.6c1.5,0.3,3.6,0.4,5.8,0.4c2.2,0,4.6-0.1,6.1-0.4c0.1-1.8,0.3-3.9,0.3-5.6c0-1.8-0.1-3.9-0.3-5.5
		C891,332.3,888.8,332.3,886.6,332.3z M585.4,364.5c0.3-1.5,0.4-3.1,0.4-4.6c0-1.6-0.1-3.1-0.4-4.4h-22.5v-18.6
		c-3.2,1.2-6.6,3-9,5.1c-1.3,1.2-2.2,2.6-2.2,4.7v49.5c0,18.3,10.5,26,23.1,26c4.2,0,8.1-0.5,10.5-1.3c0.3-1.3,0.4-2.8,0.4-4.3
		c0-1.3-0.1-2.8-0.4-4.3c-3,0.7-5.5,0.9-9.4,0.9c-7.5,0-13.1-5.8-13.1-16.7v-32H585.4z M597.5,355.5v65.8c1.5,0.3,3.4,0.5,5.4,0.5
		c2,0,4.3-0.3,5.8-0.5v-65.8c-1.5-0.3-3.4-0.5-5.4-0.5S599,355.2,597.5,355.5z M183.3,122.3c-13.2,0-27.5,1.2-41.8,3.6
		c14.4-18.5,37.2-30.4,62.6-30.4c18.8,0,37.5,7.1,50.2,17.6c2.3,1.9,4,2.1,5.8,0.3c1.8-1.7,1.6-3.5-0.3-5.7
		c-16.5-19.2-40.7-32.1-69.3-31.6c-37.4,0.7-69.1,24.3-81.2,57.1C98.2,136.8,88,141,79,146c-2.5,1.4-3.3,3.1-2.5,5.2
		c0.9,1.9,2.6,2.6,5.1,1.9c7.7-2.2,15.6-4.1,23.9-5.9c-0.9,4.3-1.4,8.8-1.4,13.5c-0.7,30.2,15.4,58.9,40.4,74.6
		c2.5,1.6,4.6,1.6,6-0.3c1.4-1.9,1.2-3.6-0.9-5.5c-15.8-14.2-24.6-35.2-24.6-56.1c0-10.5,2.1-20.7,6.1-29.9c8.3-0.7,17.2-1.2,27-1.2
		c63.9,0,117.7,21.1,117.7,48.7c0,14-17.7,28-38.8,37.3c-5.1,2.2-5.6,3.8-4.9,6c0.7,2.1,3,2.8,5.6,1.9
		c36.8-12.1,64.7-31.9,64.7-55.9C302.6,147.5,249.9,122.3,183.3,122.3z M431.5,242.1c0-29.7-13.8-48.2-42.3-48.2
		c-7.5,0-14.9,1.7-19.5,4v-46.5c-7.3,2.7-15.1,6.5-21.6,11.7c-3.4,2.7-4.4,5.4-4.4,9.4v114.8c6.9,2.9,20.9,5.4,34.4,5.4
		C412,292.8,431.5,272,431.5,242.1z M369.7,218.4c3.6-1.9,8.6-2.9,15.1-2.9c13,0,19.9,9,19.9,26c0,17.8-8.2,30.2-25.1,30.2
		c-2.7,0-6.9,0-9.8-1V218.4z M473.4,290.7v-46.3c0-18.4,9.6-28.3,22.6-28.3c2.3,0,6.3,0,8.6,0.4c1.5-6.1,1.7-14.9,0.4-20.9
		c-1.5-0.4-5.2-0.8-7.3-0.8c-12.4,0-19.5,4.8-26.2,13.4c-0.6-4.4-1.5-8-2.9-12.4c-2.5-0.8-6.9-1-10.7-1c-3.6,0-8.2,0.4-10.5,1v94.9
		c3.1,0.8,8.4,1,13,1C464.8,291.7,470.7,291.3,473.4,290.7z M410.4,354.4c-7.7,0-15.6,2-22.3,5.2c-4.7-3.5-10.8-5.2-18.2-5.2
		c-8.9,0-17.4,1.6-25.2,3.9v63c1.5,0.3,3.4,0.5,5.4,0.5c2,0,4.3-0.3,5.8-0.5v-56.1c3.8-1.1,7.7-1.7,13.3-1.7
		c12.2,0,17.8,6.6,17.8,21.3v36.6c1.5,0.3,3.4,0.5,5.4,0.5s4.3-0.3,5.8-0.5v-36.7c0-7.3-1.3-13.2-4-17.9c5.1-2.2,10.4-3.2,15.6-3.2
		c12.4,0,18.7,6.5,18.7,21.5v36.3c1.5,0.3,3.4,0.5,5.4,0.5s4.3-0.3,5.8-0.5v-36.7C439.6,364.6,428.3,354.4,410.4,354.4z
		 M545.7,193.5c-10.3-0.2-19.3,1-28.1,3.1c-1.7,5.9-1.5,14.5,0,20.5c10.9-2.5,17-2.7,23.9-2.7c13.4,0,19.9,5.4,19.9,16.5v1
		c-4-0.4-8.8-0.8-12.2-0.8c-22.2,0-41.3,8-41.3,29.3c0,24.1,17.2,32.3,42.1,32.3c11.7,0,24.5-2.1,36.2-5.7v-54.3
		C586.3,206.9,572.3,194.1,545.7,193.5z M561.4,271.4c-1.5,0.4-8,1-11.1,1c-11.9,0-18.4-3.6-18.4-11.9c0-8.4,6.5-11.7,18.4-11.7
		c4,0,8.6,0.4,11.1,0.6V271.4z M847.8,234.3l-10.5-4.4c-6.1-2.5-9.6-4.6-9.6-8.6c0-6.1,5.4-7.3,12.6-7.3c7.1,0,14.5,0.8,24.5,4
		c1.3-6.9,1.3-13.4,0-19.5c-6.3-3.4-18-5-28.3-5c-20.1,0-35.4,10.9-35.4,27.2c0,14.7,6.3,22,23.9,29.1l8.2,3.4
		c7.8,3.1,10.1,5,10.1,10.1c0,7.5-7.5,8.8-13.8,8.8c-10.5,0-18.4-2.1-28.5-5.7c-1.7,6.1-1.7,14,0,20.3c8.6,4.6,20.3,6.1,32.7,6.1
		c19.9,0,35.8-10.5,35.8-29.3C869.3,247.9,862.6,240.6,847.8,234.3z M853.7,384.4l-6.5-3c-6.5-3-10-4.8-10-9.8
		c0-6.2,6.1-8.2,12.8-8.2c5.8,0,10.6,1.1,15.7,2.8c0.3-1.5,0.4-3.1,0.4-4.6c0-1.3-0.1-2.8-0.4-4c-3.8-1.9-10.6-3.2-17.2-3.2
		c-12.1,0-22.3,6.9-22.3,17c0,8.6,3.6,13.6,15.5,18.7l5,2.2c7.7,3.4,10.6,6.2,10.6,11.4c0,7.1-6.7,9.6-13.2,9.6
		c-6.9,0-12.9-1.3-19-3.8c-0.4,1.3-0.5,2.8-0.5,4.4c0,1.5,0.1,3,0.5,4.4c5.1,2.6,11.7,3.9,20.5,3.9c12.7,0,22.9-7.1,22.9-18.4
		C868.5,394.5,863.8,389,853.7,384.4z M603.3,332.3c-2.2,0-4.4,0-6.1,0.4c-0.1,1.6-0.3,3.8-0.3,5.5c0,1.7,0.1,3.9,0.3,5.6
		c1.5,0.3,3.6,0.4,5.8,0.4c2.2,0,4.6-0.1,6.1-0.4c0.1-1.8,0.3-3.9,0.3-5.6c0-1.8-0.1-3.9-0.3-5.5
		C607.6,332.3,605.4,332.3,603.3,332.3z M781.6,267.2c-9.6,2.7-17.8,4.4-26.8,4.4c-14.5,0-24.5-5.4-26.6-20.7h59.1
		c0.8-2.3,1-10.1,1-13.2c0-28.3-15.9-44.2-40.4-44.2c-28.1,0-45.3,18.9-45.3,50.3c0,31.4,18.2,49,49.4,49c10.7,0,22.2-1.9,29.5-5.4
		C783,281.2,783,273.3,781.6,267.2z M747.4,213.4c11.7,0,16.3,8,16.8,18.4h-36C730,220.3,736.9,213.4,747.4,213.4z M880.9,355.5
		v65.8c1.5,0.3,3.4,0.5,5.4,0.5c2,0,4.3-0.3,5.8-0.5v-65.8c-1.5-0.3-3.4-0.5-5.4-0.5C884.6,355,882.3,355.2,880.9,355.5z
		 M926.5,292.8c10.7,0,20.5-1.9,28.5-6.3c-3.6-4.6-7.5-10.9-9.8-18.2c-7.3,2.9-10.5,3.1-16.6,3.1c-13,0-21.6-10.3-21.6-28.3
		c0-17.2,6.9-28.3,21.8-28.3c6.3,0,10.7,1,16.5,3.4c1.7-5.9,4.8-12.6,9.2-18.2c-8.2-4.2-16.1-6.5-29.1-6.5
		c-28.7,0-45.2,20.3-45.2,49.7C880.2,273.5,897.2,292.8,926.5,292.8z M783.7,354.4c-9,0-18,1.6-25.8,3.8v63.1
		c1.5,0.3,3.4,0.5,5.4,0.5c2,0,4.3-0.3,5.8-0.5V365c3.8-0.9,8.3-1.6,14-1.6c12.6,0,19.4,6.9,19.4,21.5v36.3c1.5,0.3,3.4,0.5,5.4,0.5
		c2,0,4.3-0.3,5.8-0.5v-36.7C813.5,364.6,802.8,354.4,783.7,354.4z M648,354.4c-8.6,0-17.6,2-23.7,4V452c3.1-1.2,6.6-2.8,9-5.1
		c1.3-1.2,2.1-2.7,2.1-4.8v-21.1c3.6,0.8,7.7,1.2,11.8,1.2c19.4,0,32.6-13.5,32.6-34.9C679.9,365.7,667.1,354.4,648,354.4z
		 M646.9,413.1c-4.6,0-8.6-0.5-11.4-1.3v-46.6c4.4-1.2,8.6-1.7,12.1-1.7c13.5,0,21,8.7,21,23.8C668.6,404.5,659.7,413.1,646.9,413.1
		z M661.9,172.5v22.8c-4.6-1.3-9.4-1.5-13.6-1.5c-28.7,0-48.2,19.3-48.2,50.1c0,31.4,19.1,48.8,48.8,48.8c13.6,0,27-1.9,39-5.9
		V151.3c-7.3,2.7-15.1,6.5-21.6,11.7C663,165.8,661.9,168.5,661.9,172.5z M661.9,270.1c-4.4,1.3-7.5,1.5-11.1,1.5
		c-17.2,0-23.9-11.3-23.9-27.7c0-18.2,6.7-29.3,23.7-29.3c5,0,8.2,0.6,11.3,1.5V270.1z M1001.3,193.5c-29.1,0-45.5,19.9-45.5,49.9
		c0,30.4,17.2,49.4,45.5,49.4c29.3,0,45.7-19.5,45.7-49.4C1047,213.1,1030.6,193.5,1001.3,193.5z M1001.3,271.8
		c-14.5,0-18.9-11.7-18.9-28.5c0-16.3,4.4-28.9,18.9-28.9c14.9,0,19.1,12.2,19.1,28.9C1020.4,260.9,1015.6,271.8,1001.3,271.8z
		 M1002.1,354.4c-9,0-18,1.6-25.8,3.8v63.1c1.5,0.3,3.4,0.5,5.4,0.5c2,0,4.3-0.3,5.8-0.5V365c3.8-0.9,8.3-1.6,14-1.6
		c12.7,0,19.4,6.9,19.4,21.5v36.3c1.5,0.3,3.4,0.5,5.4,0.5c2,0,4.3-0.3,5.8-0.5v-36.7C1032,364.6,1021.2,354.4,1002.1,354.4z
		 M719.2,354.4c-17.6,0-28.8,13.7-28.8,34.2c0,20.7,11.6,33.6,31.5,33.6c7.3,0,14.7-1.5,19.2-3.5c0.3-1.4,0.4-2.8,0.4-4.3
		c0-1.5-0.1-3-0.4-4.3c-5.8,1.9-11.7,3.2-18.4,3.2c-13.5,0-20.9-8.6-21.5-22.6h43.5c0.3-1.6,0.4-5.4,0.4-7.3
		C745,365.6,734.5,354.4,719.2,354.4z M701.3,382.4c0.9-12.1,8.3-19.4,17.8-19.4c10,0,15.5,8.1,15.5,19.4H701.3z M934.2,354.4
		c-17.9,0-29.1,12.5-29.1,34c0,21.3,11,33.9,28.9,33.9c18.2,0,29.2-12.8,29.2-33.9C963.2,366.8,952.6,354.4,934.2,354.4z M934,413.4
		c-11.6,0-17.6-8.9-17.6-24.9c0-16.3,6.3-25,17.8-25c11.7,0,17.8,8.5,17.8,25C951.9,404.7,945.7,413.4,934,413.4z"/>
</g>
</svg>
