<?xml version="1.0" encoding="utf-8"?>
<!-- Generator: Adobe Illustrator 16.0.4, SVG Export Plug-In . SVG Version: 6.00 Build 0)  -->
<!DOCTYPE svg PUBLIC "-//W3C//DTD SVG 1.1//EN" "http://www.w3.org/Graphics/SVG/1.1/DTD/svg11.dtd">
<svg version="1.1" xmlns="http://www.w3.org/2000/svg" xmlns:xlink="http://www.w3.org/1999/xlink" x="0px" y="0px"
	 width="1123.2px" height="497.5px" viewBox="0 0 1123.2 497.5" style="enable-background:new 0 0 1123.2 497.5;"
	 xml:space="preserve">
<style type="text/css">
<![CDATA[
	.st0{fill:#FFFFFF;}
	.st1{fill:#CC092F;}
	.st2{fill:#CF0A2C;}
]]>
</style>
<g id="Layer_1">
</g>
<g id="PROPORÇ_x2DC_AO_E_REGRAS">
	<path d="M473.4,244.4c0-18.4,9.6-28.3,22.6-28.3c2.3,0,6.3,0,8.6,0.4c1.5-6.1,1.7-14.9,0.4-20.9c-1.5-0.4-5.2-0.8-7.3-0.8
		c-12.4,0-19.5,4.8-26.2,13.4c-0.6-4.4-1.5-8-2.9-12.4c-2.5-0.8-6.9-1-10.7-1c-3.6,0-8.2,0.4-10.5,1v94.9c3.1,0.8,8.4,1,13,1
		c4.4,0,10.3-0.4,13-1V244.4z M486.2,354.4c-8.6,0-17.6,2-23.7,4V452c3.1-1.2,6.6-2.8,9-5.1c1.3-1.2,2.2-2.7,2.2-4.8v-21.1
		c3.6,0.8,7.7,1.2,11.8,1.2c19.4,0,32.6-13.5,32.6-34.9C518.1,365.7,505.3,354.4,486.2,354.4z M485.1,413.1c-4.6,0-8.6-0.5-11.4-1.3
		v-46.6c4.4-1.2,8.6-1.7,12.1-1.7c13.5,0,21,8.7,21,23.8C506.8,404.5,497.9,413.1,485.1,413.1z M531.1,355.5v65.8
		c1.5,0.3,3.4,0.5,5.4,0.5c2,0,4.3-0.3,5.8-0.5v-65.8c-1.5-0.3-3.4-0.5-5.4-0.5C534.9,354.9,532.6,355.2,531.1,355.5z M536.9,332.3
		c-2.1,0-4.4,0-6.1,0.4c-0.1,1.6-0.3,3.8-0.3,5.5c0,1.7,0.1,3.9,0.3,5.6c1.5,0.3,3.6,0.4,5.8,0.4c2.2,0,4.6-0.1,6.1-0.4
		c0.1-1.8,0.3-3.9,0.3-5.6c0-1.8-0.1-3.9-0.3-5.5C541.2,332.3,539.1,332.3,536.9,332.3z M916.5,334.5c-2.3-1.1-4.7-2-7.4-2
		c-4,0-7.7,1.8-10.5,4c-0.3,1.2-0.4,2.4-0.4,3.8c0,1.3,0.1,2.8,0.4,3.8c3-2.3,6.7-3.8,10.5-3.8c2.6,0,5,0.9,7.1,1.9
		c2.4,1.1,5.3,2.3,8.8,2.3c4,0,7.5-1.6,10.5-3.9c0.1-1.2,0.3-2.6,0.3-3.9c0-1.3-0.1-2.7-0.3-3.8c-3.1,2.3-6.7,3.8-10.5,3.8
		C921.6,336.6,918.9,335.6,916.5,334.5z M431.5,242c0-29.7-13.8-48.2-42.3-48.2c-7.5,0-14.9,1.7-19.5,4v-46.5
		c-7.3,2.7-15.1,6.5-21.6,11.7c-3.4,2.7-4.4,5.4-4.4,9.4v114.8c6.9,2.9,21,5.4,34.4,5.4C412,292.7,431.5,272,431.5,242z
		 M369.7,218.4c3.6-1.9,8.6-2.9,15.1-2.9c13,0,19.9,9,19.9,26c0,17.8-8.2,30.2-25.1,30.2c-2.7,0-6.9,0-9.8-1V218.4z M420.3,354.4
		c-5.8,0-12.4,0.9-17.4,2.6c-0.3,1.2-0.4,2.7-0.4,4.2c0,1.6,0.1,3.2,0.4,4.6c5.8-1.6,11.2-2.3,16.9-2.3c10.8,0,16.8,5,16.8,16.1v2.6
		c-3.6-0.5-6.9-0.8-12.1-0.8c-16.8,0-27,7.4-27,20c0,14.5,11,21,26.2,21c7.8,0,16-1.2,23.4-3.4v-37.9
		C447.3,362.3,436.6,354.4,420.3,354.4z M436.8,412.3c-2.8,0.7-8.5,1.3-12.7,1.3c-10.5,0-16.1-4.4-16.1-12.5
		c0-8.3,5.9-11.7,17.5-11.7c4.7,0,8.1,0.1,11.3,0.7V412.3z M169.6,241.2v48.3c0,1.2,1,2.2,2.2,2.2h13v-61.8l-12.9,7.5
		C170.5,238.1,169.6,239.4,169.6,241.2z M926.5,292.7c10.7,0,20.5-1.9,28.5-6.3c-3.6-4.6-7.5-10.9-9.8-18.2
		c-7.3,2.9-10.5,3.1-16.5,3.1c-13,0-21.6-10.3-21.6-28.3c0-17.2,6.9-28.3,21.8-28.3c6.3,0,10.7,1,16.5,3.4
		c1.7-5.9,4.8-12.6,9.2-18.2c-8.2-4.2-16.1-6.5-29.1-6.5c-28.7,0-45.2,20.3-45.2,49.6C880.2,273.5,897.2,292.7,926.5,292.7z
		 M373.9,413.1c-14.3,0-20.5-9.4-20.5-24.9c0-15.5,6.3-24.6,20.3-24.6c5,0,9.4,1.1,14,3c0.3-1.5,0.4-3.2,0.4-4.6
		c0-1.5-0.1-3-0.4-4.3c-4.6-2-9.6-3.2-16-3.2c-18.4,0-29.6,13.7-29.6,33.9c0,20.9,10.6,33.9,30,33.9c6.3,0,11.7-0.9,16.7-3.1
		c0.3-1.4,0.4-3,0.4-4.4c0-1.5-0.1-3-0.4-4.3C384.4,411.9,379.6,413.1,373.9,413.1z M209,216l-18.9,10.9v64.9h20.2
		c1.9,0,3.4-1.5,3.4-3.4v-69.9C213.8,215.7,211.2,214.7,209,216z M183.3,122.3c-13.2,0-27.5,1.2-41.8,3.6
		c14.4-18.5,37.2-30.4,62.6-30.4c18.8,0,37.5,7.1,50.2,17.6c2.3,1.9,4,2.1,5.8,0.3c1.8-1.7,1.6-3.5-0.3-5.7
		c-16.5-19.2-40.7-32.1-69.3-31.6c-37.4,0.7-69.1,24.3-81.2,57.1C98.2,136.8,88,141,79,146c-2.5,1.4-3.3,3.1-2.5,5.2
		c0.9,1.9,2.6,2.6,5.1,1.9c7.7-2.2,15.6-4.1,23.9-5.9c-0.9,4.3-1.4,8.8-1.4,13.5c-0.7,30.2,15.4,58.9,40.4,74.6
		c2.5,1.6,4.6,1.6,6-0.3c1.4-1.9,1.2-3.6-0.9-5.5c-15.8-14.2-24.6-35.2-24.6-56.1c0-10.5,2.1-20.7,6.1-29.9c8.3-0.7,17.2-1.2,27-1.2
		c63.9,0,117.7,21.1,117.7,48.7c0,14-17.7,28-38.8,37.3c-5.1,2.2-5.6,3.8-4.9,6c0.7,2.1,3,2.8,5.6,1.9
		c36.8-12.1,64.7-31.9,64.7-55.9C302.6,147.5,249.9,122.3,183.3,122.3z M623.5,354.4c-5.8,0-12.4,0.9-17.4,2.6
		c-0.3,1.2-0.4,2.7-0.4,4.2c0,1.6,0.1,3.2,0.4,4.6c5.8-1.6,11.2-2.3,17-2.3c10.8,0,16.8,5,16.8,16.1v2.6c-3.6-0.5-6.9-0.8-12.1-0.8
		c-16.8,0-27,7.4-27,20c0,14.5,11,21,26.2,21c7.8,0,16-1.2,23.4-3.4v-37.9C650.4,362.3,639.7,354.4,623.5,354.4z M639.9,412.3
		c-2.8,0.7-8.5,1.3-12.6,1.3c-10.5,0-16.2-4.4-16.2-12.5c0-8.3,5.9-11.7,17.5-11.7c4.7,0,8.1,0.1,11.3,0.7V412.3z M867.8,413.1
		c-14.3,0-20.4-9.4-20.4-24.9c0-15.5,6.3-24.6,20.3-24.6c5,0,9.4,1.1,14,3c0.3-1.5,0.4-3.2,0.4-4.6c0-1.5-0.1-3-0.4-4.3
		c-4.6-2-9.5-3.2-16-3.2c-18.4,0-29.6,13.7-29.6,33.9c0,19.4,9.1,32,26,33.8c1.7,2.3,2.6,4.6,2.6,7c0,4-2.8,6.6-7.3,6.6
		c-3.5,0-6.3-0.7-9.6-2c-0.1,0.9-0.3,2.3-0.3,3.8c0,1.5,0.1,2.6,0.3,3.6c3.1,1.3,6.5,2.2,10.9,2.2c8.2,0,14.3-4.4,14.3-12.5
		c0-3.2-1.2-6.1-3.1-8.6c4.7-0.3,9-1.2,12.9-3c0.3-1.4,0.4-3,0.4-4.4c0-1.5-0.1-3-0.4-4.3C878.3,411.9,873.4,413.1,867.8,413.1z
		 M729.7,412.3l32.7-48c1.1-1.6,1.4-3,1.4-5.5c0-1.1,0-2.2-0.1-3.2H717c-0.3,1.5-0.4,3-0.4,4.6c0,1.5,0.1,3,0.4,4.4h33.1l-32.7,48.3
		c-1.1,1.5-1.3,2.6-1.3,4.6c0,1.3,0,2.6,0.1,3.9h49c0.3-1.5,0.4-3,0.4-4.6c0-1.5-0.1-3-0.4-4.4H729.7z M796.4,354.4
		c-5.8,0-12.4,0.9-17.4,2.6c-0.3,1.2-0.4,2.7-0.4,4.2c0,1.6,0.1,3.2,0.4,4.6c5.8-1.6,11.2-2.3,16.9-2.3c10.8,0,16.8,5,16.8,16.1v2.6
		c-3.6-0.5-6.9-0.8-12.1-0.8c-16.8,0-27,7.4-27,20c0,14.5,11,21,26.2,21c7.8,0,16-1.2,23.4-3.4v-37.9
		C823.3,362.3,812.7,354.4,796.4,354.4z M812.8,412.3c-2.8,0.7-8.5,1.3-12.7,1.3c-10.5,0-16.1-4.4-16.1-12.5
		c0-8.3,5.9-11.7,17.5-11.7c4.7,0,8.1,0.1,11.3,0.7V412.3z M869.3,263.4c0-15.5-6.7-22.8-21.6-29.1l-10.5-4.4
		c-6.1-2.5-9.6-4.6-9.6-8.6c0-6.1,5.4-7.3,12.6-7.3c7.1,0,14.5,0.8,24.5,4c1.3-6.9,1.3-13.4,0-19.5c-6.3-3.4-18-5-28.3-5
		c-20.1,0-35.4,10.9-35.4,27.2c0,14.7,6.3,22,23.9,29.1l8.2,3.4c7.8,3.1,10.1,5,10.1,10.1c0,7.5-7.5,8.8-13.8,8.8
		c-10.5,0-18.4-2.1-28.5-5.7c-1.7,6.1-1.7,14,0,20.3c8.6,4.6,20.3,6.1,32.7,6.1C853.4,292.7,869.3,282.3,869.3,263.4z M914.2,354.4
		c-5.8,0-12.4,0.9-17.4,2.6c-0.3,1.2-0.4,2.7-0.4,4.2c0,1.6,0.1,3.2,0.4,4.6c5.8-1.6,11.2-2.3,17-2.3c10.8,0,16.8,5,16.8,16.1v2.6
		c-3.6-0.5-6.9-0.8-12.1-0.8c-16.8,0-27,7.4-27,20c0,14.5,11,21,26.2,21c7.8,0,16-1.2,23.4-3.4v-37.9
		C941.1,362.3,930.5,354.4,914.2,354.4z M930.6,412.3c-2.8,0.7-8.5,1.3-12.7,1.3c-10.5,0-16.1-4.4-16.1-12.5
		c0-8.3,5.9-11.7,17.5-11.7c4.7,0,8.1,0.1,11.3,0.7V412.3z M1001.3,193.4c-29.1,0-45.5,19.9-45.5,49.9c0,30.4,17.2,49.4,45.5,49.4
		c29.3,0,45.7-19.5,45.7-49.4C1047,213.1,1030.6,193.4,1001.3,193.4z M1001.3,271.8c-14.5,0-18.9-11.7-18.9-28.5
		c0-16.3,4.4-28.9,18.9-28.9c14.9,0,19.1,12.2,19.1,28.9C1020.4,260.9,1015.5,271.8,1001.3,271.8z M982.9,354.4
		c-17.9,0-29.1,12.5-29.1,34c0,21.3,11,33.9,28.9,33.9c18.2,0,29.2-12.8,29.2-33.9C1011.9,366.8,1001.3,354.4,982.9,354.4z
		 M982.7,413.3c-11.6,0-17.6-8.9-17.6-24.9c0-16.3,6.3-25,17.8-25c11.7,0,17.8,8.5,17.8,25C1000.6,404.7,994.4,413.3,982.7,413.3z
		 M586.3,232.8c0-26-14-38.8-40.6-39.4c-10.3-0.2-19.3,1-28.1,3.1c-1.7,5.9-1.5,14.5,0,20.5c10.9-2.5,17-2.7,23.9-2.7
		c13.4,0,19.9,5.4,19.9,16.5v1c-4-0.4-8.8-0.8-12.1-0.8c-22.2,0-41.3,8-41.3,29.3c0,24.1,17.2,32.3,42.1,32.3
		c11.7,0,24.5-2.1,36.2-5.7V232.8z M561.4,271.4c-1.5,0.4-8,1-11.1,1c-11.9,0-18.4-3.6-18.4-11.9c0-8.4,6.5-11.7,18.4-11.7
		c4,0,8.6,0.4,11.1,0.6V271.4z M665.6,334.6v86.7c1.5,0.3,3.4,0.5,5.4,0.5c2,0,4.3-0.3,5.8-0.5v-96.6c-3.2,1.2-6.4,3.1-9,5.1
		C666.3,331,665.6,332.3,665.6,334.6z M661.9,172.5v22.8c-4.6-1.3-9.4-1.5-13.6-1.5c-28.7,0-48.2,19.3-48.2,50.1
		c0,31.4,19.1,48.8,48.8,48.8c13.6,0,27-1.9,39-5.9V151.3c-7.3,2.7-15.1,6.5-21.6,11.7C663,165.8,661.9,168.5,661.9,172.5z
		 M661.9,270.1c-4.4,1.3-7.5,1.5-11.1,1.5c-17.2,0-23.9-11.3-23.9-27.7c0-18.2,6.7-29.3,23.7-29.3c5,0,8.2,0.6,11.3,1.5V270.1z
		 M591.5,364.5c0.3-1.5,0.4-3.1,0.4-4.6c0-1.6-0.1-3.1-0.4-4.4h-22.5v-18.6c-3.2,1.2-6.6,3-9,5.1c-1.3,1.2-2.2,2.6-2.2,4.7v49.5
		c0,18.3,10.5,26,23.1,26c4.2,0,8.1-0.5,10.5-1.3c0.3-1.3,0.4-2.8,0.4-4.3c0-1.3-0.1-2.8-0.4-4.3c-3,0.7-5.5,0.9-9.4,0.9
		c-7.5,0-13.1-5.8-13.1-16.7v-32H591.5z M781.5,287.3c1.5-6.1,1.5-14,0-20.1c-9.6,2.7-17.8,4.4-26.8,4.4c-14.5,0-24.5-5.4-26.6-20.7
		h59.1c0.8-2.3,1-10.1,1-13.2c0-28.3-15.9-44.2-40.4-44.2c-28.1,0-45.2,18.9-45.2,50.3c0,31.4,18.2,49,49.4,49
		C762.7,292.7,774.2,290.9,781.5,287.3z M747.4,213.4c11.7,0,16.3,8,16.8,18.4h-36C730,220.3,736.9,213.4,747.4,213.4z M692.4,355.5
		v65.8c1.5,0.3,3.4,0.5,5.4,0.5c2,0,4.3-0.3,5.8-0.5v-65.8c-1.5-0.3-3.4-0.5-5.4-0.5C696.2,354.9,693.9,355.2,692.4,355.5z
		 M698.2,332.3c-2.2,0-4.4,0-6.1,0.4c-0.1,1.6-0.3,3.8-0.3,5.5c0,1.7,0.1,3.9,0.3,5.6c1.5,0.3,3.6,0.4,5.8,0.4
		c2.2,0,4.6-0.1,6.1-0.4c0.1-1.8,0.3-3.9,0.3-5.6c0-1.8-0.1-3.9-0.3-5.5C702.5,332.3,700.3,332.3,698.2,332.3z"/>
</g>
</svg>
